<svg width="51" height="51" viewBox="0 0 51 51" fill="none" xmlns="http://www.w3.org/2000/svg">
<rect x="25.3553" y="-5.05028" width="43" height="43" rx="21.5" transform="rotate(45 25.3553 -5.05028)" fill="#063B8A" stroke="#063B8A" stroke-width="3"/>
<path d="M23.4272 23.4277L13.2363 23.4258L13.2362 23.4258C12.9827 23.4258 12.7317 23.4757 12.4976 23.5727C12.2634 23.6697 12.0506 23.8119 11.8714 23.9911C11.6922 24.1703 11.55 24.3831 11.453 24.6173C11.356 24.8514 11.3061 25.1024 11.3061 25.3559C11.3061 25.6093 11.356 25.8603 11.453 26.0945C11.55 26.3286 11.6922 26.5414 11.8714 26.7206C12.0506 26.8998 12.2634 27.042 12.4976 27.139C12.7317 27.236 12.9827 27.2859 13.2362 27.2859H13.2363L23.4272 27.284L23.4253 37.475V37.4751C23.4253 37.7285 23.4752 37.9795 23.5722 38.2137C23.6692 38.4478 23.8114 38.6606 23.9906 38.8398C24.1698 39.019 24.3826 39.1612 24.6167 39.2582C24.8509 39.3552 25.1019 39.4051 25.3553 39.4051C25.6088 39.4051 25.8598 39.3552 26.094 39.2582C26.3281 39.1612 26.5409 39.019 26.7201 38.8398C26.8993 38.6606 27.0415 38.4478 27.1385 38.2137C27.2355 37.9795 27.2854 37.7285 27.2854 37.4751V37.475L27.2835 27.284L37.4744 27.2859H37.4745C37.728 27.2859 37.979 27.236 38.2131 27.139C38.4473 27.042 38.6601 26.8998 38.8393 26.7206C39.0185 26.5414 39.1607 26.3286 39.2577 26.0945C39.3547 25.8603 39.4046 25.6093 39.4046 25.3559C39.4046 25.1024 39.3547 24.8514 39.2577 24.6173C39.1607 24.3831 39.0185 24.1703 38.8393 23.9911C38.6601 23.8119 38.4473 23.6697 38.2131 23.5727C37.979 23.4757 37.728 23.4258 37.4745 23.4258L37.4744 23.4258L27.2835 23.4277L27.2854 13.2373C27.2854 13.2372 27.2854 13.2371 27.2854 13.237C27.2857 12.9835 27.236 12.7324 27.1391 12.4981C27.0422 12.2637 26.9 12.0507 26.7206 11.8714C26.5413 11.692 26.3283 11.5498 26.0939 11.4529C25.8596 11.356 25.6083 11.3063 25.3547 11.3066L25.3553 11.8066L25.356 11.3066C25.1023 11.3063 24.8511 11.356 24.6168 11.4529C24.3824 11.5498 24.1694 11.692 23.9901 11.8714C23.8107 12.0507 23.6685 12.2637 23.5716 12.4981C23.4747 12.7324 23.425 12.9835 23.4253 13.237C23.4253 13.2371 23.4253 13.2372 23.4253 13.2373L23.4272 23.4277Z" fill="white" stroke="white"/>
</svg>
