<svg width="86" height="119" viewBox="0 0 86 119" fill="none" xmlns="http://www.w3.org/2000/svg">
<path d="M35.66 6.11L35.12 5.72C35.32 5.44 35.86 4.69 36.82 4.69H37.45L37.98 5.15L39.42 6.5L37.81 7.64C37.66 7.74 37.52 7.85 37.37 7.96L35.66 6.12V6.11Z" fill="#6BA4D6"/>
<path d="M36.82 6.3C36.82 6.3 36.87 6.3 36.89 6.33C36.73 6.44 36.57 6.56 36.4 6.68L36.42 6.66C36.6 6.41 36.73 6.3 36.82 6.3Z" fill="black"/>
<path d="M19.87 48.27C17.7 48.27 15.46 46.7 13.71 43.96C11.51 40.51 10.03 34.89 11.98 30.69C14.81 24.59 26.45 13.5 33.14 7.44L35.38 9.74C31.99 13.3 29.21 19.22 26.89 27.86C25.26 33.91 24.16 40.28 23.62 46.8L23.5 48.27H19.87Z" fill="#6BA4D6"/>
<path d="M34.22 8.63C30.94 12.07 27.96 17.69 25.34 27.44C23.64 33.77 22.56 40.2 22.02 46.66H19.87C15.49 46.66 10.8 37.05 13.44 31.37C16.27 25.28 29.04 13.33 34.22 8.63ZM32.06 6.25C25.29 12.4 13.48 23.66 10.53 30.02C8.31 34.79 9.85 40.9 12.36 44.83C14.44 48.09 17.11 49.88 19.87 49.88H24.98L25.23 46.93C25.77 40.51 26.85 34.23 28.45 28.27C30.7 19.9 33.35 14.2 36.55 10.85L32.07 6.25H32.06Z" fill="black"/>
<path d="M66.6 48.27L66.48 46.8C65.88 39.63 64.5 32.56 62.39 25.79C60.42 19.46 57.56 14.09 54.13 10.27L56.41 8.01001C62.89 13.93 74.17 24.74 76.94 30.69C78.89 34.89 77.41 40.51 75.21 43.96C73.46 46.7 71.22 48.27 69.05 48.27H66.6Z" fill="#6BA4D6"/>
<path d="M55.32 9.19001C60.83 14.22 72.75 25.51 75.47 31.36C78.11 37.05 73.43 46.65 69.04 46.65H68.07C67.46 39.45 66.09 32.3 63.92 25.3C61.79 18.47 58.76 13.02 55.32 9.19001ZM57.49 6.82001L52.94 11.34C56.22 14.99 58.96 20.15 60.86 26.26C62.93 32.92 64.29 39.87 64.88 46.93L65.13 49.87H69.05C71.82 49.87 74.48 48.08 76.56 44.82C79.07 40.89 80.61 34.79 78.39 30.01C75.65 24.11 65.51 14.14 57.49 6.82001Z" fill="black"/>
<path d="M19.3 109.17C19.38 109.08 25.47 102.16 29.38 92.39C25.26 95.92 19.1 99.6 11.32 99.6C11.13 99.6 10.94 99.6 10.75 99.6L5.62 99.48L9.56999 96.21C9.61999 96.17 14.57 91.97 19.05 83.57H18.25L19.82 50.69C19.88 49.45 19.97 48.12 20.1 46.52C20.66 39.79 21.8 33.21 23.48 26.96C25.99 17.61 28.96 11.37 32.82 7.32C33.59 6.51 34.4 5.79 35.23 5.16C35.41 5.03 35.59 4.9 35.77 4.77C36.18 4.48 36.59 4.21 37.01 3.96C39.25 2.63 41.89 1.92 44.63 1.92C48.04 1.92 51.26 3.01 53.71 5C54.73 5.83 55.75 6.81 56.75 7.91C60.52 12.1 63.64 17.92 65.76 24.74C67.94 31.75 69.37 39.07 69.99 46.5C70.11 47.89 70.19 49.12 70.25 50.27L71.84 83.56H70.83C72.55 86.8 75.68 92.28 79.18 96.45L81.4 99.09L77.95 99.58C77.95 99.58 77.7 99.62 77.22 99.62C75.27 99.62 69.11 98.98 60.91 91.92C62.91 97.7 65.04 101.56 67.12 105.33C67.92 106.77 68.67 108.14 69.41 109.59L71.14 113L67.37 112.34C59.79 111.02 49.66 103.62 44.88 94.29C41.57 101.5 37.26 107.07 21.33 112.27L14.59 114.47L19.3 109.17Z" fill="#6BA4D6"/>
<path d="M44.63 3.83C47.49 3.83 50.34 4.72 52.51 6.48C53.47 7.26 54.42 8.17 55.33 9.19C58.78 13.02 61.81 18.47 63.93 25.3C66.11 32.3 67.48 39.45 68.08 46.65C68.18 47.88 68.27 49.11 68.33 50.35L69.83 81.63H67.7C67.7 81.63 72.21 91.12 77.71 97.67C77.71 97.67 77.54 97.69 77.22 97.69C75.22 97.69 67.33 96.88 56.96 85.33C60.29 98.47 64.38 103.9 67.7 110.45C60.18 109.14 48.28 100.47 44.93 89.34C41.13 98.37 38.8 104.55 20.74 110.45C20.74 110.45 30.67 99.31 33.68 84.9C33.68 84.9 25.17 97.68 11.33 97.68C11.16 97.68 10.98 97.68 10.81 97.68C10.81 97.68 17.13 92.44 22.16 81.64H20.27L21.75 50.76C21.82 49.39 21.91 48.03 22.03 46.66C22.57 40.19 23.65 33.76 25.35 27.44C27.97 17.69 30.95 12.07 34.23 8.63C34.94 7.89 35.67 7.24 36.4 6.68C36.56 6.56 36.72 6.44 36.89 6.33C37.26 6.07 37.62 5.83 38 5.61C40 4.43 42.32 3.84 44.64 3.84M44.63 0C41.55 0 38.58 0.8 36.03 2.31C35.61 2.56 35.17 2.85 34.68 3.19C34.48 3.33 34.28 3.47 34.09 3.62C33.18 4.31 32.29 5.1 31.45 5.98C27.36 10.27 24.24 16.77 21.64 26.44C19.93 32.8 18.77 39.5 18.2 46.34C18.07 47.95 17.97 49.3 17.91 50.57L16.43 81.45L16.28 84.58C12.33 91.32 8.38 94.69 8.34 94.73L0.589996 101.26L10.71 101.5C10.91 101.5 11.12 101.5 11.32 101.5C16.44 101.5 20.89 100.03 24.58 98.02C21.3 103.97 17.92 107.83 17.86 107.89L8.48 118.47L21.92 114.09C36.11 109.46 41.57 104.33 44.98 98.31C50.48 106.71 59.69 112.95 67.03 114.23L74.57 115.54L71.11 108.72C70.36 107.24 69.56 105.79 68.79 104.4C67.6 102.25 66.4 100.07 65.21 97.51C70.87 101.01 75.14 101.54 77.21 101.54C77.7 101.54 78.03 101.51 78.18 101.49L85.18 100.62L80.64 95.22C78 92.08 75.57 88.14 73.83 85.06L73.66 81.46L72.16 50.18C72.1 49.01 72.02 47.76 71.9 46.35C71.26 38.79 69.81 31.33 67.59 24.18C65.39 17.1 62.13 11.04 58.18 6.64C57.12 5.46 56.03 4.41 54.93 3.52C52.14 1.26 48.49 0.00999999 44.64 0.00999999L44.63 0Z" fill="black"/>
<path d="M40.98 73.92L44.32 71.61L47.14 73.92" stroke="black" stroke-width="2.73" stroke-linecap="round" stroke-linejoin="round"/>
<path d="M47.52 63.29C50.27 66.46 53.44 67.06 53.44 67.06" stroke="black" stroke-width="2.73" stroke-linecap="round" stroke-linejoin="round"/>
<path d="M41.73 63.29C38.98 66.46 35.81 67.06 35.81 67.06" stroke="black" stroke-width="2.73" stroke-linecap="round" stroke-linejoin="round"/>
</svg>
