<svg width="85" height="119" viewBox="0 0 85 119" fill="none" xmlns="http://www.w3.org/2000/svg">
<path d="M17.6 46.23C18.17 39.43 19.32 32.77 21.02 26.44C21.85 23.34 22.74 20.56 23.7 18.08C19.01 22.82 14.39 27.99 12.83 31.37C10.52 36.34 13.81 44.3 17.6 46.23Z" fill="#80E5D1"/>
<path d="M17.59 46.34C17.59 46.34 17.59 46.26 17.6 46.23C13.81 44.3 10.52 36.34 12.83 31.37C14.4 28 19.01 22.83 23.7 18.08C25.05 14.56 26.55 11.64 28.22 9.22C21.43 15.56 12.44 24.58 9.92 30.01C7.7 34.78 9.24 40.89 11.75 44.82C13.35 47.32 15.29 48.95 17.36 49.58C17.42 48.59 17.49 47.54 17.59 46.34Z" fill="black"/>
<path d="M74.87 31.37C73.44 28.3 69.49 23.74 65.25 19.37C65.88 20.91 66.46 22.51 66.97 24.17C69.11 31.04 70.52 38.2 71.2 45.46C74.48 42.72 76.94 35.84 74.86 31.36L74.87 31.37Z" fill="#80E5D1"/>
<path d="M65.25 19.37C69.48 23.74 73.44 28.3 74.87 31.37C76.95 35.84 74.49 42.73 71.21 45.47C71.24 45.76 71.27 46.05 71.3 46.34C71.38 47.34 71.45 48.26 71.5 49.13C73.14 48.32 74.66 46.86 75.96 44.82C78.47 40.89 80.01 34.79 77.79 30.01C75.4 24.86 67.38 16.62 60.04 9.73C62.03 12.52 63.79 15.76 65.26 19.36L65.25 19.37Z" fill="black"/>
<path d="M67.08 81.63H69.21L67.71 50.35C67.65 49.12 67.56 47.88 67.46 46.65C66.85 39.45 65.48 32.3 63.31 25.3C61.18 18.47 58.15 13.02 54.71 9.19C53.8 8.17 52.85 7.27 51.89 6.48C49.72 4.72 46.88 3.83 44.01 3.83C41.69 3.83 39.37 4.41 37.37 5.6C37 5.82 36.63 6.07 36.26 6.32C36.1 6.43 35.94 6.55 35.77 6.67C35.03 7.23 34.31 7.87 33.6 8.62C30.32 12.06 27.34 17.68 24.72 27.43C23.02 33.76 21.94 40.19 21.4 46.65C21.29 48.02 21.19 49.38 21.12 50.75L19.64 81.63H21.53C16.5 92.43 10.18 97.67 10.18 97.67C10.35 97.67 10.53 97.67 10.7 97.67C24.54 97.67 33.05 84.89 33.05 84.89C30.04 99.3 20.11 110.44 20.11 110.44C38.17 104.54 40.5 98.36 44.3 89.33C47.65 100.46 59.55 109.13 67.07 110.44C63.75 103.89 59.66 98.46 56.33 85.32C66.7 96.88 74.59 97.68 76.59 97.68C76.91 97.68 77.08 97.66 77.08 97.66C71.57 91.11 67.07 81.62 67.07 81.62L67.08 81.63ZM35.43 65.18C35.43 63.86 36.5 62.78 37.83 62.78C39.16 62.78 40.23 63.85 40.23 65.18C40.23 66.51 39.16 67.58 37.83 67.58C36.5 67.58 35.43 66.51 35.43 65.18ZM47.39 72.67L44.57 74.98C44.32 75.19 44.01 75.29 43.7 75.29C43.43 75.29 43.16 75.21 42.92 75.05L39.58 72.74C38.96 72.31 38.8 71.46 39.23 70.84C39.66 70.22 40.51 70.06 41.13 70.49L43.62 72.22L45.65 70.56C46.23 70.08 47.09 70.17 47.57 70.75C48.05 71.33 47.96 72.19 47.38 72.67H47.39ZM49.31 67.57C47.99 67.57 46.91 66.5 46.91 65.17C46.91 63.84 47.98 62.77 49.31 62.77C50.64 62.77 51.71 63.84 51.71 65.17C51.71 66.5 50.64 67.57 49.31 67.57Z" fill="#80E5D1"/>
<path d="M80.03 95.2C77.39 92.06 74.96 88.12 73.22 85.04L73.05 81.44L71.55 50.16C71.53 49.82 71.51 49.47 71.49 49.12C71.44 48.25 71.37 47.33 71.29 46.33C71.27 46.04 71.23 45.75 71.2 45.46C70.53 38.2 69.11 31.04 66.97 24.17C66.45 22.51 65.87 20.91 65.25 19.37C63.78 15.77 62.02 12.53 60.03 9.74C59.24 8.63 58.42 7.59 57.56 6.63C56.5 5.45 55.41 4.4 54.31 3.51C51.52 1.25 47.87 0 44.02 0C40.94 0 37.97 0.8 35.42 2.31C35 2.56 34.56 2.85 34.07 3.19C33.87 3.33 33.67 3.47 33.48 3.62C32.57 4.31 31.68 5.1 30.84 5.98C29.92 6.94 29.05 8.03 28.23 9.22C26.56 11.64 25.07 14.56 23.71 18.08C22.75 20.56 21.87 23.34 21.03 26.44C19.33 32.77 18.18 39.42 17.61 46.23C17.61 46.27 17.61 46.31 17.6 46.34C17.5 47.54 17.42 48.59 17.37 49.58C17.35 49.92 17.33 50.25 17.32 50.58L15.84 81.46L15.69 84.59C11.74 91.33 7.79 94.7 7.75 94.74L0 101.27L10.12 101.51C10.32 101.51 10.53 101.51 10.73 101.51C15.85 101.51 20.3 100.03 23.99 98.03C20.71 103.98 17.33 107.84 17.27 107.9L7.89 118.48L21.33 114.1C35.52 109.47 40.98 104.34 44.39 98.32C49.89 106.72 59.1 112.96 66.44 114.24L73.98 115.55L70.52 108.73C69.77 107.25 68.97 105.8 68.2 104.41C67.01 102.26 65.81 100.08 64.62 97.52C70.28 101.02 74.55 101.55 76.62 101.55C77.11 101.55 77.44 101.52 77.59 101.5L84.59 100.63L80.05 95.23L80.03 95.2ZM56.34 85.33C59.67 98.47 63.76 103.9 67.08 110.45C59.56 109.14 47.66 100.47 44.31 89.34C40.51 98.37 38.18 104.55 20.12 110.45C20.12 110.45 30.05 99.31 33.06 84.9C33.06 84.9 24.55 97.68 10.71 97.68C10.54 97.68 10.36 97.68 10.19 97.68C10.19 97.68 16.51 92.44 21.54 81.64H19.65L21.13 50.76C21.2 49.39 21.29 48.03 21.41 46.66C21.95 40.19 23.03 33.76 24.73 27.44C27.35 17.69 30.33 12.07 33.61 8.63C34.32 7.89 35.05 7.24 35.78 6.68C35.94 6.56 36.1 6.44 36.27 6.33C36.64 6.07 37 5.83 37.38 5.61C39.38 4.43 41.7 3.84 44.02 3.84C46.88 3.84 49.73 4.73 51.9 6.49C52.86 7.27 53.81 8.18 54.72 9.2C58.17 13.03 61.2 18.48 63.32 25.31C65.5 32.31 66.87 39.46 67.47 46.66C67.57 47.89 67.66 49.12 67.72 50.36L69.22 81.64H67.09C67.09 81.64 71.6 91.13 77.1 97.68C77.1 97.68 76.93 97.7 76.61 97.7C74.61 97.7 66.72 96.89 56.35 85.34L56.34 85.33Z" fill="black"/>
<path d="M45.66 70.56L43.63 72.22L41.14 70.49C40.52 70.06 39.67 70.22 39.24 70.84C38.81 71.46 38.97 72.31 39.59 72.74L42.93 75.05C43.16 75.21 43.44 75.29 43.71 75.29C44.02 75.29 44.32 75.19 44.58 74.98L47.4 72.67C47.98 72.19 48.07 71.33 47.59 70.75C47.11 70.17 46.25 70.08 45.67 70.56H45.66Z" fill="black"/>
<path d="M37.83 67.58C39.1555 67.58 40.23 66.5055 40.23 65.18C40.23 63.8545 39.1555 62.78 37.83 62.78C36.5045 62.78 35.43 63.8545 35.43 65.18C35.43 66.5055 36.5045 67.58 37.83 67.58Z" fill="black"/>
<path d="M49.31 67.58C50.6355 67.58 51.71 66.5055 51.71 65.18C51.71 63.8545 50.6355 62.78 49.31 62.78C47.9845 62.78 46.91 63.8545 46.91 65.18C46.91 66.5055 47.9845 67.58 49.31 67.58Z" fill="black"/>
</svg>
