<svg width="85" height="119" viewBox="0 0 85 119" fill="none" xmlns="http://www.w3.org/2000/svg">
<path d="M35.81 6.56L34.65 5.72C34.85 5.44 35.39 4.69 36.35 4.69H36.99L37.52 5.14999L38.95 6.5L37.34 7.63C37.19 7.73 37.05 7.84001 36.9 7.95001L35.81 6.54999V6.56Z" fill="#81E2B8"/>
<path d="M36.35 6.29999C36.35 6.29999 36.4 6.29999 36.42 6.32999C36.26 6.43999 36.1 6.55999 35.93 6.67999L35.95 6.66C36.13 6.41 36.26 6.29999 36.35 6.29999Z" fill="black"/>
<path d="M19.41 48.27C17.24 48.27 15 46.7 13.25 43.96C11.05 40.51 9.57002 34.89 11.52 30.69C14.35 24.59 25.99 13.5 32.68 7.44L34.92 9.73999C31.53 13.3 28.75 19.22 26.43 27.86C24.8 33.91 23.7 40.28 23.16 46.8L23.04 48.27H19.41Z" fill="#81E2B8"/>
<path d="M33.76 8.63C30.48 12.07 27.5 17.69 24.88 27.44C23.18 33.77 22.1 40.2 21.56 46.66H19.41C15.03 46.66 10.34 37.05 12.98 31.37C15.81 25.28 28.58 13.33 33.76 8.63ZM31.6 6.25C24.83 12.4 13.02 23.66 10.07 30.02C7.85002 34.79 9.39002 40.9 11.9 44.83C13.98 48.09 16.65 49.88 19.41 49.88H24.52L24.77 46.93C25.31 40.51 26.39 34.23 27.99 28.27C30.24 19.9 32.89 14.2 36.09 10.85L31.61 6.25H31.6Z" fill="black"/>
<path d="M66.14 48.27L66.02 46.8C65.42 39.63 64.04 32.56 61.93 25.79C59.96 19.46 57.1 14.09 53.67 10.27L55.95 8.01001C62.43 13.93 73.71 24.74 76.48 30.69C78.43 34.89 76.95 40.51 74.75 43.96C73 46.7 70.76 48.27 68.59 48.27H66.14Z" fill="#81E2B8"/>
<path d="M54.86 9.20001C60.37 14.23 72.29 25.52 75.01 31.37C77.65 37.06 72.97 46.66 68.58 46.66H67.61C67 39.46 65.63 32.31 63.46 25.31C61.33 18.48 58.3 13.03 54.86 9.20001ZM57.03 6.82999L52.48 11.35C55.76 15 58.5 20.16 60.4 26.27C62.47 32.93 63.83 39.88 64.42 46.94L64.67 49.88H68.59C71.36 49.88 74.02 48.09 76.1 44.83C78.61 40.9 80.15 34.8 77.93 30.02C75.19 24.12 65.05 14.15 57.03 6.82999Z" fill="black"/>
<path d="M18.84 109.18C18.92 109.09 25.01 102.17 28.92 92.4C24.8 95.94 18.64 99.61 10.86 99.61C10.67 99.61 10.48 99.61 10.3 99.61L5.16998 99.49L9.11998 96.22C9.16998 96.18 14.12 91.98 18.6 83.58H17.8L19.37 50.7C19.43 49.46 19.52 48.13 19.65 46.53C20.21 39.8 21.35 33.22 23.03 26.97C25.54 17.62 28.51 11.38 32.37 7.32999C33.14 6.52999 33.95 5.80001 34.78 5.17001C34.96 5.03001 35.14 4.9 35.32 4.78C35.73 4.49 36.14 4.22001 36.55 3.98001C38.79 2.65001 41.43 1.94 44.17 1.94C47.58 1.94 50.8 3.03999 53.25 5.01999C54.27 5.84999 55.29 6.82999 56.29 7.92999C60.06 12.12 63.18 17.94 65.3 24.76C67.48 31.77 68.91 39.1 69.53 46.52C69.65 47.9 69.73 49.14 69.79 50.28L71.38 83.57H70.37C72.09 86.81 75.22 92.29 78.72 96.46L80.94 99.1L77.49 99.59C77.49 99.59 77.24 99.63 76.76 99.63C74.81 99.63 68.65 98.99 60.45 91.93C62.45 97.71 64.58 101.57 66.66 105.34C67.46 106.78 68.21 108.15 68.95 109.6L70.68 113.01L66.91 112.35C59.33 111.03 49.2 103.63 44.42 94.3C41.11 101.51 36.8 107.08 20.87 112.28L14.13 114.48L18.84 109.18Z" fill="#81E2B8"/>
<path d="M44.17 3.84C47.03 3.84 49.88 4.72999 52.05 6.48999C53.01 7.26999 53.96 8.18001 54.87 9.20001C58.32 13.03 61.35 18.48 63.47 25.31C65.65 32.31 67.02 39.46 67.62 46.66C67.72 47.89 67.81 49.12 67.87 50.36L69.37 81.64H67.24C67.24 81.64 71.75 91.13 77.25 97.68C77.25 97.68 77.08 97.7 76.76 97.7C74.76 97.7 66.87 96.89 56.5 85.34C59.83 98.48 63.92 103.91 67.24 110.46C59.72 109.15 47.82 100.48 44.47 89.35C40.67 98.38 38.34 104.56 20.28 110.46C20.28 110.46 30.21 99.32 33.22 84.91C33.22 84.91 24.71 97.69 10.87 97.69C10.7 97.69 10.52 97.69 10.35 97.69C10.35 97.69 16.67 92.45 21.7 81.65H19.81L21.29 50.77C21.36 49.4 21.45 48.04 21.57 46.67C22.11 40.2 23.19 33.77 24.89 27.45C27.51 17.7 30.49 12.08 33.77 8.64001C34.48 7.90001 35.21 7.25 35.94 6.69C36.1 6.57 36.26 6.45 36.43 6.34C36.8 6.08 37.16 5.83999 37.54 5.62C39.54 4.44 41.86 3.85001 44.18 3.85001M44.17 0C41.09 0 38.12 0.799998 35.57 2.31C35.15 2.56 34.71 2.85 34.22 3.19C34.02 3.33 33.82 3.47 33.63 3.62C32.72 4.31 31.83 5.10001 30.99 5.98001C26.9 10.27 23.78 16.77 21.18 26.44C19.47 32.8 18.31 39.5 17.74 46.34C17.61 47.95 17.51 49.3 17.45 50.57L15.97 81.45L15.82 84.58C11.87 91.32 7.92 94.69 7.88 94.73L0.130005 101.26L10.25 101.5C10.45 101.5 10.66 101.5 10.86 101.5C15.98 101.5 20.43 100.02 24.12 98.02C20.84 103.97 17.46 107.83 17.4 107.89L8.02 118.47L21.46 114.09C35.65 109.46 41.11 104.33 44.52 98.31C50.02 106.71 59.23 112.95 66.57 114.23L74.11 115.54L70.65 108.72C69.9 107.24 69.1 105.79 68.33 104.4C67.14 102.25 65.94 100.07 64.75 97.51C70.41 101.01 74.68 101.54 76.75 101.54C77.24 101.54 77.57 101.51 77.72 101.49L84.72 100.62L80.18 95.22C77.54 92.08 75.11 88.14 73.37 85.06L73.2 81.46L71.7 50.18C71.64 49.01 71.56 47.76 71.44 46.35C70.8 38.79 69.35 31.33 67.13 24.18C64.93 17.1 61.67 11.04 57.72 6.64001C56.66 5.46001 55.57 4.40999 54.47 3.51999C51.68 1.25999 48.03 0.0100098 44.18 0.0100098L44.17 0Z" fill="black"/>
<path d="M37.74 67.58C39.0655 67.58 40.14 66.5055 40.14 65.18C40.14 63.8545 39.0655 62.78 37.74 62.78C36.4145 62.78 35.34 63.8545 35.34 65.18C35.34 66.5055 36.4145 67.58 37.74 67.58Z" fill="black"/>
<path d="M49.46 67.58C50.7855 67.58 51.86 66.5055 51.86 65.18C51.86 63.8545 50.7855 62.78 49.46 62.78C48.1345 62.78 47.06 63.8545 47.06 65.18C47.06 66.5055 48.1345 67.58 49.46 67.58Z" fill="black"/>
<path d="M42.95 69.39L40.95 72.86C40.57 73.51 41.04 74.33 41.8 74.33H45.81C46.56 74.33 47.04 73.51 46.66 72.86L44.66 69.39C44.28 68.74 43.34 68.74 42.96 69.39H42.95Z" stroke="black" stroke-width="2.7" stroke-miterlimit="10"/>
</svg>
