<svg width="43" height="40" viewBox="0 0 43 40" fill="none" xmlns="http://www.w3.org/2000/svg">
<path d="M35.2406 23C34.3806 23 33.5806 22.47 33.2706 21.62C32.3106 19 31.1506 16.5 29.8206 14.19C27.9806 11 26.3106 8.95997 24.7106 7.96997C23.7506 7.36997 23.4406 6.11997 24.0006 5.14997C24.3906 4.47997 25.0906 4.09998 25.8206 4.09998C26.1506 4.09998 26.4906 4.17997 26.8006 4.33997C31.1006 6.60997 36.6206 9.80997 38.5406 12.13C40.2106 14.15 40.2806 17.23 39.6006 19.38C39.0506 21.13 38.0106 22.3 36.6806 22.67L35.8006 22.91C35.6106 22.96 35.4206 22.99 35.2406 22.99V23Z" fill="#80E5D1"/>
<path d="M25.8206 6.19C28.4706 7.59 35.0606 11.21 36.9306 13.47C38.6706 15.58 37.9006 20.17 36.1206 20.66L35.2506 20.9C34.2706 18.23 33.0806 15.63 31.6406 13.14C29.4306 9.31 27.5606 7.27 25.8306 6.19M25.8306 2C24.3806 2 22.9706 2.76 22.1906 4.1C21.0606 6.06 21.6906 8.55 23.6006 9.75C24.8806 10.55 26.3606 12.4 28.0006 15.24C29.2706 17.44 30.3806 19.83 31.3006 22.34C31.9206 24.03 33.5206 25.09 35.2306 25.09C35.6006 25.09 35.9806 25.04 36.3506 24.94L37.2206 24.7C39.2606 24.13 40.8106 22.47 41.5806 20.02C42.4306 17.33 42.3106 13.43 40.1406 10.8C38.4206 8.72 34.2606 5.92 27.7606 2.49C27.1406 2.16 26.4706 2 25.8006 2H25.8306Z" fill="black"/>
<path d="M8.85055 23C8.66055 23 8.48055 22.98 8.29055 22.92L7.42055 22.68C6.09055 22.31 5.05055 21.14 4.50055 19.39C3.82055 17.24 3.89055 14.16 5.56055 12.14C7.48055 9.81999 13.0006 6.61999 17.3006 4.34999C17.6106 4.17999 17.9506 4.10999 18.2806 4.10999C19.0106 4.10999 19.7106 4.48998 20.1006 5.15998C20.6606 6.13998 20.3506 7.38998 19.3906 7.97998C17.7906 8.97998 16.1206 11.01 14.2806 14.2C12.9506 16.51 11.7906 19.01 10.8306 21.63C10.5206 22.47 9.72055 23.01 8.86055 23.01L8.85055 23Z" fill="#80E5D1"/>
<path d="M18.2705 6.19C16.5306 7.27 14.6606 9.32 12.4606 13.14C11.0306 15.63 9.83055 18.22 8.85055 20.9L7.98055 20.66C6.20055 20.17 5.43055 15.57 7.17055 13.47C9.03055 11.21 15.6206 7.6 18.2806 6.19M18.2705 2C17.9605 2 17.6505 2.03 17.3405 2.11C16.9505 2.2 16.5806 2.34 16.2406 2.53C9.78055 5.95 5.65055 8.73 3.93055 10.8C1.76055 13.43 1.64055 17.32 2.49055 20.02C3.26055 22.47 4.81055 24.14 6.85055 24.7L7.72055 24.94C8.09055 25.04 8.47055 25.09 8.84055 25.09C10.5606 25.09 12.1606 24.03 12.7706 22.34C13.6906 19.83 14.8006 17.44 16.0705 15.24C17.6905 12.43 19.1505 10.6 20.4205 9.78C21.6405 9.05 22.4506 7.71 22.4506 6.19C22.4506 3.96 20.7206 2.14 18.5306 2.01C18.4405 2.01 18.3505 2.01 18.2605 2.01L18.2705 2Z" fill="black"/>
<path d="M16.9106 5.90004L3.75055 28.7C1.50055 32.59 4.31055 37.46 8.81055 37.46H35.1406C39.6306 37.46 42.4406 32.6 40.2006 28.7L27.0406 5.90004C24.7906 2.01004 19.1805 2.01004 16.9305 5.90004H16.9106Z" fill="#80E5D1" stroke="black" stroke-width="4" stroke-miterlimit="10"/>
<path d="M18.8806 29.0499L22.2206 31.3599L25.0406 29.0499" stroke="black" stroke-width="2.73" stroke-linecap="round" stroke-linejoin="round"/>
<path d="M16.1006 25.01C17.426 25.01 18.5006 23.9354 18.5006 22.61C18.5006 21.2845 17.426 20.21 16.1006 20.21C14.7751 20.21 13.7006 21.2845 13.7006 22.61C13.7006 23.9354 14.7751 25.01 16.1006 25.01Z" fill="black"/>
<path d="M27.8205 25.01C29.146 25.01 30.2205 23.9354 30.2205 22.61C30.2205 21.2845 29.146 20.21 27.8205 20.21C26.4951 20.21 25.4205 21.2845 25.4205 22.61C25.4205 23.9354 26.4951 25.01 27.8205 25.01Z" fill="black"/>
</svg>
