<svg width="86" height="119" viewBox="0 0 86 119" fill="none" xmlns="http://www.w3.org/2000/svg">
<path d="M35.49 6.02L34.82 5.54001C35.03 5.25001 35.66 4.38 36.77 4.38H37.53L38.15 4.93001L39.87 6.54001L37.95 7.90001C37.81 8.00001 37.66 8.11001 37.52 8.21001L35.5 6.03L35.49 6.02Z" fill="#B9E082"/>
<path d="M36.77 6.29001C36.77 6.29001 36.82 6.29001 36.84 6.32001C36.68 6.43001 36.52 6.55 36.35 6.67L36.37 6.65001C36.55 6.40001 36.68 6.29001 36.77 6.29001Z" fill="black"/>
<path d="M19.8301 48.57C17.5201 48.57 15.2401 46.99 13.4101 44.12C11.0901 40.49 9.65006 34.88 11.6601 30.56C14.5201 24.41 26.1901 13.29 32.8901 7.21001L35.56 9.95C32.2 13.47 29.4501 19.35 27.1401 27.93C25.5201 33.96 24.4201 40.32 23.8801 46.82L23.7301 48.58H19.81L19.8301 48.57Z" fill="#B9E082"/>
<path d="M34.18 8.62001C30.9 12.06 27.9201 17.68 25.3001 27.43C23.6001 33.76 22.5201 40.19 21.9801 46.65H19.8301C15.4501 46.65 10.7601 37.04 13.4001 31.36C16.2301 25.27 29 13.32 34.18 8.62001ZM31.6001 5.78C24.7901 11.96 12.92 23.29 9.92005 29.75C7.60005 34.74 9.19006 41.08 11.7901 45.15C13.9901 48.59 16.8401 50.49 19.8301 50.49H25.5101L25.8001 46.97C26.3301 40.58 27.41 34.34 29 28.42C31.22 20.15 33.8201 14.54 36.9501 11.26L31.6001 5.77V5.78Z" fill="black"/>
<path d="M66.27 48.57L66.12 46.81C65.52 39.66 64.15 32.62 62.05 25.87C60.09 19.58 57.26 14.25 53.85 10.47L56.57 7.77C63.07 13.7 74.38 24.55 77.17 30.55C79.18 34.88 77.74 40.48 75.42 44.11C73.59 46.98 71.31 48.56 69 48.56H66.27V48.57Z" fill="#B9E082"/>
<path d="M55.28 9.19C60.79 14.22 72.71 25.51 75.43 31.36C78.07 37.05 73.39 46.65 69 46.65H68.03C67.42 39.45 66.05 32.3 63.88 25.3C61.75 18.47 58.72 13.02 55.28 9.19ZM57.86 6.36L52.42 11.76C55.64 15.34 58.34 20.42 60.21 26.45C62.27 33.07 63.61 39.97 64.2 46.98L64.5 50.49H69C71.99 50.49 74.84 48.59 77.04 45.15C79.64 41.08 81.22 34.73 78.91 29.75C76.13 23.76 65.93 13.72 57.86 6.36Z" fill="black"/>
<path d="M19.26 109.17C19.34 109.08 25.43 102.16 29.34 92.39C25.22 95.92 19.06 99.6 11.28 99.6C11.09 99.6 10.9 99.6 10.71 99.6L5.58002 99.48L9.53001 96.21C9.58001 96.17 14.53 91.97 19.01 83.57H18.21L19.78 50.69C19.84 49.45 19.93 48.12 20.06 46.52C20.62 39.79 21.76 33.21 23.44 26.96C25.95 17.61 28.92 11.37 32.78 7.32001C33.55 6.52001 34.36 5.79 35.19 5.16C35.37 5.03 35.55 4.9 35.73 4.77C36.14 4.48 36.55 4.21001 36.96 3.96001C39.2 2.63001 41.84 1.92 44.58 1.92C47.99 1.92 51.21 3.01 53.66 5C54.68 5.83 55.7 6.81 56.7 7.91C60.47 12.1 63.59 17.92 65.71 24.74C67.89 31.75 69.32 39.07 69.94 46.5C70.06 47.89 70.14 49.12 70.2 50.27L71.79 83.56H70.78C72.5 86.8 75.63 92.28 79.13 96.45L81.35 99.09L77.9 99.58C77.9 99.58 77.65 99.62 77.17 99.62C75.22 99.62 69.06 98.98 60.86 91.92C62.86 97.7 64.99 101.56 67.07 105.32C67.87 106.76 68.62 108.13 69.36 109.58L71.09 112.99L67.32 112.33C59.74 111.01 49.61 103.61 44.83 94.28C41.52 101.49 37.21 107.06 21.28 112.26L14.54 114.46L19.25 109.16L19.26 109.17Z" fill="#B9E082"/>
<path d="M44.58 3.83C47.44 3.83 50.29 4.72 52.46 6.48C53.42 7.26 54.37 8.17 55.28 9.19C58.73 13.02 61.76 18.47 63.88 25.3C66.06 32.3 67.43 39.45 68.03 46.65C68.13 47.88 68.22 49.11 68.28 50.35L69.78 81.63H67.65C67.65 81.63 72.16 91.12 77.66 97.67C77.66 97.67 77.49 97.69 77.17 97.69C75.17 97.69 67.28 96.88 56.91 85.33C60.24 98.47 64.33 103.9 67.65 110.45C60.13 109.14 48.23 100.47 44.88 89.34C41.08 98.37 38.75 104.55 20.69 110.45C20.69 110.45 30.62 99.31 33.63 84.9C33.63 84.9 25.12 97.68 11.28 97.68C11.11 97.68 10.93 97.68 10.76 97.68C10.76 97.68 17.08 92.44 22.11 81.64H20.22L21.7 50.76C21.77 49.39 21.86 48.03 21.98 46.66C22.52 40.19 23.6 33.76 25.3 27.44C27.92 17.69 30.9 12.07 34.18 8.63C34.89 7.89001 35.62 7.24001 36.35 6.68001C36.51 6.56001 36.67 6.44 36.84 6.33C37.21 6.07 37.57 5.83 37.95 5.61C39.95 4.43 42.27 3.84 44.59 3.84M44.58 0C41.5 0 38.53 0.799998 35.98 2.31C35.56 2.56 35.12 2.85 34.63 3.19C34.43 3.33 34.23 3.47001 34.04 3.62001C33.13 4.31001 32.24 5.1 31.4 5.98C27.31 10.27 24.19 16.77 21.59 26.44C19.88 32.8 18.72 39.5 18.15 46.34C18.02 47.95 17.92 49.3 17.86 50.57L16.38 81.45L16.23 84.58C12.28 91.32 8.33004 94.69 8.29004 94.73L0.540039 101.26L10.66 101.5C10.86 101.5 11.07 101.5 11.27 101.5C16.39 101.5 20.84 100.02 24.53 98.02C21.25 103.97 17.87 107.83 17.81 107.89L8.43004 118.47L21.87 114.09C36.06 109.46 41.52 104.33 44.93 98.31C50.43 106.71 59.64 112.95 66.98 114.23L74.52 115.54L71.06 108.72C70.31 107.24 69.51 105.79 68.74 104.4C67.55 102.25 66.35 100.07 65.16 97.51C70.82 101.01 75.09 101.54 77.16 101.54C77.65 101.54 77.98 101.51 78.13 101.49L85.13 100.62L80.59 95.22C77.95 92.08 75.52 88.14 73.78 85.06L73.61 81.46L72.11 50.18C72.05 49.01 71.97 47.76 71.85 46.35C71.21 38.79 69.76 31.33 67.54 24.18C65.34 17.1 62.08 11.04 58.13 6.64C57.07 5.46 55.98 4.41 54.88 3.52C52.09 1.26 48.44 0.0100098 44.59 0.0100098L44.58 0Z" fill="black"/>
<path d="M31.97 64.38C34.3 55.39 44.75 63.58 39.07 67.48C34.85 69.52 33.48 65.35 35.24 63.62C37 61.89 38.23 63.7 37.55 65.3" stroke="black" stroke-width="2" stroke-linecap="round" stroke-linejoin="round"/>
<path d="M47.69 64.38C50.02 55.39 60.47 63.58 54.79 67.48C50.57 69.52 49.2 65.35 50.96 63.62C52.72 61.89 53.95 63.7 53.27 65.3" stroke="black" stroke-width="2" stroke-linecap="round" stroke-linejoin="round"/>
<path d="M40.07 71.77C41.23 74.68 43.54 74.06 44.17 71.77C45.61 74.07 46.89 74.74 48.36 71.77" stroke="black" stroke-width="2.73" stroke-linecap="round" stroke-linejoin="round"/>
</svg>
