<svg width="85" height="119" viewBox="0 0 85 119" fill="none" xmlns="http://www.w3.org/2000/svg">
<path d="M35.52 6.31L34.71 5.72C34.91 5.44 35.45 4.69 36.41 4.69H37.05L37.58 5.15L39.01 6.5L37.4 7.63C37.25 7.73 37.11 7.84 36.96 7.95L35.52 6.3V6.31Z" fill="#B8C3C9"/>
<path d="M36.41 6.3C36.41 6.3 36.46 6.3 36.48 6.33C36.32 6.44 36.16 6.56 35.99 6.68L36.01 6.66C36.19 6.41 36.32 6.3 36.41 6.3Z" fill="black"/>
<path d="M19.47 48.27C17.3 48.27 15.06 46.7 13.31 43.96C11.11 40.51 9.63002 34.89 11.58 30.69C14.41 24.59 26.05 13.5 32.74 7.44L34.98 9.74C31.59 13.3 28.81 19.22 26.49 27.86C24.86 33.91 23.76 40.28 23.22 46.8L23.1 48.27H19.47Z" fill="#B8C3C9"/>
<path d="M33.82 8.63C30.54 12.07 27.56 17.69 24.94 27.44C23.24 33.77 22.16 40.2 21.62 46.66H19.47C15.09 46.66 10.4 37.05 13.04 31.37C15.87 25.28 28.64 13.33 33.82 8.63ZM31.66 6.25C24.89 12.4 13.08 23.66 10.13 30.02C7.91 34.79 9.45001 40.9 11.96 44.83C14.04 48.09 16.71 49.88 19.47 49.88H24.58L24.83 46.93C25.37 40.51 26.45 34.23 28.05 28.27C30.3 19.9 32.95 14.2 36.15 10.85L31.67 6.25H31.66Z" fill="black"/>
<path d="M66.2 48.27L66.08 46.8C65.48 39.63 64.1 32.56 61.99 25.79C60.02 19.46 57.16 14.09 53.73 10.27L56.01 8.01001C62.49 13.93 73.77 24.74 76.54 30.69C78.49 34.89 77.01 40.51 74.82 43.95C73.07 46.69 70.83 48.26 68.66 48.26H66.21L66.2 48.27Z" fill="#B8C3C9"/>
<path d="M54.92 9.20001C60.43 14.23 72.35 25.52 75.07 31.37C77.71 37.06 73.03 46.66 68.64 46.66H67.67C67.06 39.46 65.69 32.31 63.52 25.31C61.39 18.48 58.36 13.03 54.92 9.20001ZM57.08 6.82001L52.53 11.34C55.81 14.99 58.55 20.15 60.45 26.26C62.52 32.92 63.88 39.87 64.47 46.93L64.72 49.87H68.64C71.41 49.87 74.07 48.08 76.15 44.82C78.66 40.89 80.2 34.79 77.98 30.01C75.24 24.11 65.1 14.14 57.08 6.82001Z" fill="black"/>
<path d="M18.9 109.17C18.98 109.08 25.07 102.16 28.98 92.39C24.86 95.93 18.7 99.6 10.92 99.6C10.73 99.6 10.54 99.6 10.36 99.6L5.23001 99.48L9.18001 96.21C9.23001 96.17 14.18 91.97 18.66 83.57H17.86L19.43 50.69C19.49 49.45 19.58 48.12 19.71 46.52C20.27 39.79 21.41 33.21 23.09 26.96C25.6 17.61 28.57 11.37 32.43 7.31999C33.2 6.51999 34.01 5.78999 34.84 5.15999C35.02 5.01999 35.2 4.88999 35.38 4.76999C35.79 4.47999 36.2 4.20999 36.61 3.96999C38.85 2.63999 41.49 1.92999 44.23 1.92999C47.64 1.92999 50.86 3.01999 53.31 5.00999C54.33 5.83999 55.35 6.81999 56.35 7.91999C60.12 12.11 63.24 17.93 65.36 24.75C67.54 31.76 68.97 39.09 69.59 46.51C69.71 47.9 69.79 49.13 69.85 50.28L71.44 83.57H70.43C72.15 86.81 75.28 92.29 78.78 96.46L81 99.1L77.55 99.59C77.55 99.59 77.3 99.63 76.82 99.63C74.87 99.63 68.71 98.99 60.51 91.93C62.51 97.71 64.64 101.57 66.72 105.33C67.52 106.77 68.27 108.14 69.01 109.59L70.74 113L66.97 112.34C59.39 111.02 49.26 103.62 44.48 94.29C41.17 101.5 36.86 107.07 20.93 112.27L14.19 114.47L18.9 109.17Z" fill="#B8C3C9"/>
<path d="M44.22 3.83C47.08 3.83 49.93 4.72 52.1 6.48C53.06 7.26 54.01 8.17 54.92 9.19C58.37 13.02 61.4 18.47 63.52 25.3C65.7 32.3 67.07 39.45 67.67 46.65C67.77 47.88 67.86 49.11 67.92 50.35L69.42 81.63H67.29C67.29 81.63 71.8 91.12 77.3 97.67C77.3 97.67 77.13 97.69 76.81 97.69C74.81 97.69 66.92 96.88 56.55 85.33C59.88 98.47 63.97 103.9 67.29 110.45C59.77 109.14 47.87 100.47 44.52 89.34C40.72 98.37 38.39 104.55 20.33 110.45C20.33 110.45 30.26 99.31 33.27 84.9C33.27 84.9 24.76 97.68 10.92 97.68C10.75 97.68 10.57 97.68 10.4 97.68C10.4 97.68 16.72 92.44 21.75 81.64H19.86L21.34 50.76C21.41 49.39 21.5 48.03 21.62 46.66C22.16 40.19 23.24 33.76 24.94 27.44C27.56 17.69 30.54 12.07 33.82 8.63C34.53 7.89 35.26 7.24 35.99 6.68C36.15 6.56 36.31 6.44 36.48 6.33C36.85 6.07 37.21 5.83 37.59 5.61C39.59 4.43 41.91 3.84 44.23 3.84M44.22 0C41.14 0 38.17 0.8 35.62 2.31C35.2 2.56 34.76 2.85 34.27 3.19C34.07 3.33 33.87 3.47 33.68 3.62C32.77 4.31 31.88 5.1 31.04 5.98C26.95 10.27 23.83 16.77 21.23 26.44C19.52 32.8 18.36 39.5 17.79 46.34C17.66 47.95 17.56 49.3 17.5 50.57L16.02 81.45L15.87 84.58C11.92 91.32 7.97001 94.69 7.93001 94.73L0.180008 101.26L10.3 101.5C10.5 101.5 10.71 101.5 10.91 101.5C16.03 101.5 20.48 100.02 24.17 98.02C20.89 103.97 17.51 107.83 17.45 107.89L8.07001 118.47L21.51 114.09C35.7 109.46 41.16 104.33 44.57 98.31C50.07 106.71 59.28 112.95 66.62 114.23L74.16 115.54L70.7 108.72C69.95 107.24 69.15 105.79 68.38 104.4C67.19 102.25 65.99 100.07 64.8 97.51C70.46 101.01 74.73 101.54 76.8 101.54C77.29 101.54 77.62 101.51 77.77 101.49L84.77 100.62L80.23 95.22C77.58 92.07 75.15 88.14 73.42 85.07L73.25 81.47L71.75 50.19C71.69 49.02 71.61 47.77 71.49 46.36C70.85 38.8 69.4 31.34 67.18 24.19C64.98 17.11 61.72 11.05 57.77 6.65C56.71 5.47 55.62 4.42 54.52 3.53C51.73 1.25 48.07 0 44.22 0Z" fill="black"/>
<path d="M40.57 73.93L43.91 71.61L46.73 73.93" stroke="black" stroke-width="2.73" stroke-linecap="round" stroke-linejoin="round"/>
<path d="M41.57 62.08L35.14 68.28" stroke="black" stroke-width="2.73" stroke-miterlimit="10" stroke-linecap="round"/>
<path d="M35.14 62.08L41.57 68.28" stroke="black" stroke-width="2.73" stroke-miterlimit="10" stroke-linecap="round"/>
<path d="M53.29 62.08L46.86 68.28" stroke="black" stroke-width="2.73" stroke-miterlimit="10" stroke-linecap="round"/>
<path d="M46.86 62.08L53.29 68.28" stroke="black" stroke-width="2.73" stroke-miterlimit="10" stroke-linecap="round"/>
</svg>
