<svg width="43" height="40" viewBox="0 0 43 40" fill="none" xmlns="http://www.w3.org/2000/svg">
<path d="M35.0507 22.72C34.2307 22.72 33.4707 22.21 33.1707 21.41C32.2107 18.78 31.0407 16.28 29.7107 13.97C27.8607 10.77 26.1807 8.72002 24.5707 7.71002C23.6607 7.14002 23.3607 5.95002 23.9007 5.02002C24.2707 4.38002 24.9407 4.02002 25.6407 4.02002C25.9607 4.02002 26.2807 4.10002 26.5707 4.25002C30.8607 6.52002 36.3807 9.71002 38.2807 12.02C39.9307 14.02 39.9907 17.06 39.3207 19.19C38.7807 20.91 37.7607 22.06 36.4607 22.42L35.5907 22.66C35.4107 22.71 35.2307 22.73 35.0507 22.73V22.72Z" fill="#C5D3DD"/>
<path d="M25.6307 6.01C28.2807 7.41 34.8707 11.03 36.7407 13.29C38.4807 15.4 37.7107 19.99 35.9307 20.48L35.0607 20.72C34.0807 18.05 32.8907 15.45 31.4507 12.96C29.2407 9.13 27.3707 7.09 25.6407 6.01M25.6307 2.01C24.2407 2.01 22.9007 2.73 22.1607 4.01C21.0907 5.88 21.6807 8.26 23.5107 9.4C24.8207 10.22 26.3207 12.09 27.9807 14.96C29.2607 17.17 30.3707 19.57 31.2907 22.09C31.8807 23.7 33.4007 24.72 35.0507 24.72C35.4007 24.72 35.7607 24.67 36.1207 24.57L36.9907 24.33C38.9707 23.78 40.4707 22.16 41.2207 19.77C42.0507 17.13 41.9407 13.31 39.8107 10.73C38.1107 8.67 33.9607 5.89 27.4907 2.46C26.8907 2.15 26.2507 2 25.6207 2L25.6307 2.01Z" fill="black"/>
<path d="M8.66064 22.72C8.48064 22.72 8.30064 22.7 8.12064 22.65L7.25064 22.41C5.95064 22.05 4.93064 20.9 4.39064 19.18C3.72064 17.05 3.78064 14.01 5.43064 12.02C7.34064 9.71002 12.8506 6.52002 17.1406 4.25002C17.4406 4.09002 17.7606 4.02002 18.0706 4.02002C18.7606 4.02002 19.4406 4.38002 19.8106 5.02002C20.3506 5.95002 20.0506 7.14002 19.1406 7.71002C17.5306 8.72002 15.8506 10.76 14.0006 13.97C12.6706 16.28 11.5006 18.79 10.5406 21.41C10.2506 22.21 9.48064 22.72 8.66064 22.72Z" fill="#C5D3DD"/>
<path d="M18.0806 6.01001C16.3406 7.09001 14.4706 9.14001 12.2706 12.96C10.8406 15.45 9.64064 18.04 8.66064 20.72L7.79064 20.48C6.01064 19.99 5.24064 15.39 6.98064 13.29C8.84064 11.03 15.4306 7.42001 18.0906 6.01001M18.0706 2.01001C17.4406 2.01001 16.8006 2.16001 16.2006 2.47001C9.73064 5.90001 5.59064 8.68001 3.89064 10.74C1.76064 13.31 1.65064 17.13 2.48064 19.78C3.23064 22.17 4.73064 23.79 6.71064 24.34L7.58064 24.58C7.94064 24.68 8.30064 24.73 8.65064 24.73C10.2906 24.73 11.8206 23.71 12.4106 22.1C13.3306 19.58 14.4506 17.18 15.7206 14.97C17.3806 12.1 18.8806 10.23 20.1906 9.41001C22.0206 8.27001 22.6106 5.89001 21.5406 4.02001C20.8006 2.74001 19.4606 2.02001 18.0706 2.02001V2.01001Z" fill="black"/>
<path d="M16.7108 5.71999L3.55081 28.52C1.30081 32.41 4.11081 37.28 8.61081 37.28H34.9408C39.4308 37.28 42.2408 32.42 40.0008 28.52L26.8208 5.71999C24.5708 1.82999 18.9608 1.82999 16.7108 5.71999Z" fill="#C5D3DD" stroke="black" stroke-width="4" stroke-miterlimit="10"/>
<path d="M18.1207 31.16L21.4607 28.84L24.2907 31.16" stroke="black" stroke-width="2.73" stroke-linecap="round" stroke-linejoin="round"/>
<path d="M18.3407 20.86L13.4707 25.55" stroke="black" stroke-width="2.07" stroke-miterlimit="10" stroke-linecap="round"/>
<path d="M13.4707 20.86L18.3407 25.55" stroke="black" stroke-width="2.07" stroke-miterlimit="10" stroke-linecap="round"/>
<path d="M30.0607 20.77L25.1007 25.55" stroke="black" stroke-width="2.11" stroke-miterlimit="10" stroke-linecap="round"/>
<path d="M25.1007 20.77L30.0607 25.55" stroke="black" stroke-width="2.11" stroke-miterlimit="10" stroke-linecap="round"/>
</svg>
