<svg width="70" height="70" viewBox="0 0 70 70" fill="none" xmlns="http://www.w3.org/2000/svg">
<circle cx="35" cy="35" r="31.5" fill="#063B8A" stroke="#063B8A" stroke-width="3"/>
<path d="M30.9385 50.6V42.1886C30.9385 41.6006 31.5154 41.0006 32.0923 41.0006H36.7077C37.2846 41.0006 37.8615 41.6006 37.8615 42.2006V50.6C37.8615 50.9183 37.9831 51.2235 38.1995 51.4485C38.4159 51.6735 38.7094 51.7999 39.0154 51.7999H48.2462C48.5522 51.7999 48.8457 51.6735 49.062 51.4485C49.2784 51.2235 49.4 50.9183 49.4 50.6V33.8011C49.4003 33.6434 49.3707 33.4872 49.3128 33.3415C49.255 33.1957 49.1702 33.0632 49.0631 32.9516L45.9385 29.7046V21.8019C45.9385 21.4836 45.8169 21.1784 45.6005 20.9534C45.3841 20.7284 45.0906 20.6019 44.7846 20.6019H42.4769C42.1709 20.6019 41.8774 20.7284 41.661 20.9534C41.4446 21.1784 41.3231 21.4836 41.3231 21.8019V24.9049L35.2169 18.5525C35.1097 18.4407 34.9824 18.3521 34.8422 18.2916C34.7021 18.2311 34.5518 18.2 34.4 18.2C34.2482 18.2 34.098 18.2311 33.9578 18.2916C33.8176 18.3521 33.6903 18.4407 33.5831 18.5525L19.7369 32.9516C19.6298 33.0632 19.545 33.1957 19.4872 33.3415C19.4293 33.4872 19.3997 33.6434 19.4 33.8011V50.6C19.4 50.9183 19.5216 51.2235 19.738 51.4485C19.9543 51.6735 20.2478 51.7999 20.5538 51.7999H29.7846C30.0906 51.7999 30.3841 51.6735 30.6005 51.4485C30.8169 51.2235 30.9385 50.9183 30.9385 50.6Z" fill="white"/>
</svg>
