<svg width="50" height="50" viewBox="0 0 50 50" fill="none" xmlns="http://www.w3.org/2000/svg">
<circle cx="25" cy="25" r="21.5" fill="#063B8A" stroke="#063B8A" stroke-width="3"/>
<path d="M22.6923 35.6965V30.0638C22.6923 29.6701 23.0769 29.2683 23.4615 29.2683H26.5385C26.9231 29.2683 27.3077 29.6701 27.3077 30.0718V35.6965C27.3077 35.9096 27.3887 36.114 27.533 36.2647C27.6773 36.4153 27.8729 36.5 28.0769 36.5H34.2308C34.4348 36.5 34.6304 36.4153 34.7747 36.2647C34.919 36.114 35 35.9096 35 35.6965V24.4472C35.0002 24.3416 34.9804 24.237 34.9419 24.1394C34.9034 24.0418 34.8468 23.9531 34.7754 23.8783L32.6923 21.704V16.412C32.6923 16.1989 32.6113 15.9945 32.467 15.8438C32.3227 15.6931 32.1271 15.6085 31.9231 15.6085H30.3846C30.1806 15.6085 29.9849 15.6931 29.8407 15.8438C29.6964 15.9945 29.6154 16.1989 29.6154 16.412V18.4899L25.5446 14.2361C25.4732 14.1612 25.3883 14.1019 25.2948 14.0614C25.2014 14.0209 25.1012 14 25 14C24.8988 14 24.7986 14.0209 24.7052 14.0614C24.6117 14.1019 24.5268 14.1612 24.4554 14.2361L15.2246 23.8783C15.1532 23.9531 15.0966 24.0418 15.0581 24.1394C15.0196 24.237 14.9998 24.3416 15 24.4472V35.6965C15 35.9096 15.081 36.114 15.2253 36.2647C15.3696 36.4153 15.5652 36.5 15.7692 36.5H21.9231C22.1271 36.5 22.3227 36.4153 22.467 36.2647C22.6113 36.114 22.6923 35.9096 22.6923 35.6965Z" fill="white"/>
</svg>
