<svg width="70" height="76" viewBox="0 0 70 76" fill="none" xmlns="http://www.w3.org/2000/svg">
<path fill-rule="evenodd" clip-rule="evenodd" d="M32.1859 7.25166C32.7491 6.96949 33.4012 6.92256 33.9989 7.12121C34.5967 7.31985 35.091 7.7478 35.3732 8.31091L49.6232 36.8109C49.7887 37.1412 49.8749 37.5055 49.8749 37.8749C49.8749 38.2443 49.7887 38.6086 49.6232 38.9389L35.3732 67.4389C35.2349 67.7202 35.0424 67.9714 34.8066 68.1779C34.5708 68.3844 34.2965 68.5422 33.9994 68.6422C33.7024 68.7422 33.3885 68.7824 33.0758 68.7605C32.7631 68.7387 32.4579 68.6551 32.1777 68.5147C31.8974 68.3742 31.6478 68.1797 31.4431 67.9424C31.2384 67.705 31.0827 67.4295 30.985 67.1316C30.8873 66.8338 30.8495 66.5196 30.8739 66.2071C30.8982 65.8946 30.9841 65.59 31.1267 65.3109L44.8399 37.8749L31.1267 10.4389C30.8445 9.87578 30.7976 9.22363 30.9962 8.62591C31.1949 8.02819 31.6228 7.53386 32.1859 7.25166Z" fill="#063B8A"/>
</svg>
