<svg width="126" height="273" viewBox="0 0 126 273" fill="none" xmlns="http://www.w3.org/2000/svg">
<g clip-path="url(#clip0_88_191)">
<path d="M23.8745 52.9836L21.1963 52.5597C21.294 51.9156 21.5628 50.1867 23.1835 49.3639L24.264 48.8154L25.5529 49.1377L29.1495 50.1996L27.3831 53.4957C27.2156 53.793 27.0735 54.0987 26.9145 54.413L23.8745 52.9836Z" fill="#EFAA56"/>
<path d="M24.5634 52.0819C24.5634 52.0819 24.6478 52.039 24.7072 52.0725C24.5314 52.3954 24.3641 52.7351 24.18 53.0834L24.1966 53.0325C24.2862 52.4561 24.4114 52.159 24.5634 52.0819Z" fill="black"/>
<path d="M31.9347 137.454C28.2713 139.314 23.1442 138.583 17.8415 135.458C11.1707 131.519 3.85559 123.299 3.54806 114.538C3.09778 101.814 13.2441 73.116 19.3446 57.1518L25.0973 59.115C22.4168 68.0135 22.8058 80.4071 26.2939 96.9816C28.7441 108.584 32.3463 120.28 37.0057 131.759L38.0629 134.343L31.9347 137.454Z" fill="#EFAA56"/>
<path d="M22.1877 58.2352C19.5986 66.8537 19.3842 78.8954 23.3172 97.6009C25.8723 109.744 29.5598 121.525 34.1846 132.894L30.5549 134.736C23.1605 138.49 7.00672 126.286 6.59564 114.434C6.15394 101.728 17.4708 70.6092 22.1877 58.2352ZM16.5014 56.0684C10.343 72.2531 0.0554356 101.384 0.525953 114.649C0.86618 124.605 8.70251 133.6 16.3081 138.083C22.6135 141.804 28.6551 142.538 33.3146 140.172L41.9413 135.793L39.8351 130.598C35.2446 119.297 31.6857 107.77 29.2789 96.3368C25.904 80.2781 25.4927 68.3842 28.0239 59.9861L16.5183 56.0599L16.5014 56.0684Z" fill="black"/>
<path d="M110.825 97.4051L109.362 95.0263C102.204 83.436 93.8155 72.683 84.4512 63.0622C75.6918 54.0473 66.2698 47.4496 57.2054 43.9403L59.1176 38.1708C75.1309 42.6115 103.438 51.1937 113.214 58.8646C120.106 64.2838 122.424 75.04 121.666 82.7498C121.06 88.8753 118.624 93.4456 114.961 95.3053L110.825 97.4051Z" fill="#EFAA56"/>
<path d="M58.2974 41.114C71.9103 44.8835 101.71 53.7275 111.315 61.2724C120.649 68.6158 120.975 88.8336 113.564 92.5959L111.927 93.4273C104.726 81.7949 96.2855 70.8983 86.6229 60.9406C77.1734 51.2356 67.3873 44.6317 58.2974 41.114ZM59.9042 35.2449L56.0966 46.7751C64.7621 50.126 73.8102 56.4889 82.2542 65.1755C91.4567 74.6449 99.7091 85.2125 106.756 96.6256L109.698 101.375L116.315 98.0151C120.992 95.6411 123.948 90.3395 124.666 83.0533C125.535 74.2675 122.907 62.6495 115.062 56.4825C105.38 48.8703 79.7172 40.7292 59.9042 35.2449Z" fill="black"/>
<path d="M83.1658 240.755C83.2238 240.534 87.5743 223.633 85.802 203.788C81.8719 213.278 74.6264 224.77 61.4921 231.438C61.1713 231.601 60.8506 231.764 60.5467 231.918L51.7833 236.112L55.6492 227.206C55.6994 227.096 60.4565 215.763 60.8206 197.742L59.47 198.428L33.9412 141.574C32.9626 139.396 31.9833 137.09 30.84 134.294C26.0176 122.453 22.3029 110.367 19.7826 98.3761C16.0067 80.4402 15.6728 67.3603 18.7183 57.2149C19.3326 55.2044 20.0744 53.2778 20.9357 51.5029C21.1196 51.1123 21.3121 50.7386 21.5045 50.3648C21.9399 49.5493 22.4006 48.7421 22.8785 47.9687C25.5371 43.795 29.3686 40.3424 33.9943 37.9941C39.7512 35.0716 46.1468 34.1604 51.963 35.4119C54.3963 35.939 56.9582 36.7192 59.5891 37.7192C69.5447 41.5618 79.7829 48.7219 89.2238 58.41C98.9119 68.376 107.6 79.5082 115.014 91.5202C116.442 93.8315 117.606 95.7888 118.684 97.6619L149.899 152.5L148.194 153.365C153.874 157.361 163.855 163.93 173.338 167.97L179.348 170.525L173.944 174.309C173.944 174.309 173.556 174.59 172.746 175.002C169.454 176.673 158.506 180.872 138.612 175.981C146.942 184.024 153.846 188.715 160.588 193.297C163.173 195.043 165.613 196.713 168.105 198.527L173.948 202.801L167.018 204.918C153.09 209.185 129.647 205.374 113.581 193.72C114.172 208.729 111.669 221.826 89.2328 244.257L79.7398 253.748L83.149 240.764L83.1658 240.755Z" fill="#EFAA56"/>
<path d="M35.6313 41.2186C40.4596 38.7675 46.0337 37.8274 51.2055 38.9389C53.4947 39.433 55.8784 40.1551 58.2889 41.0972C67.3957 44.6062 77.1818 51.2102 86.6143 60.9238C96.2939 70.8729 104.735 81.7695 111.918 93.4104C113.141 95.4012 114.347 97.4006 115.511 99.4425L144.852 150.964L141.256 152.79C141.256 152.79 157.003 164.946 171.902 171.29C171.902 171.29 171.632 171.469 171.091 171.743C167.715 173.458 153.701 178.852 126.295 168.241C143.179 187.57 154.737 193.232 165.955 201.444C152.137 205.677 124.617 201.239 109.423 185.321C110.747 203.822 112.11 216.252 86.677 241.69C86.677 241.69 93.8936 214.373 86.6252 187.466C86.6252 187.466 83.2114 216.335 59.8466 228.197C59.5596 228.342 59.2557 228.497 58.9687 228.642C58.9687 228.642 65.1474 214.38 64.3831 191.836L61.1924 193.456L37.2257 140.055C36.1697 137.683 35.1561 135.309 34.1845 132.894C29.5511 121.508 25.8637 109.727 23.3172 97.6009C19.3842 78.8954 19.5985 66.8537 22.1877 58.2352C22.7521 56.3774 23.4274 54.6545 24.1799 53.0834C24.3471 52.7437 24.5144 52.404 24.7071 52.0726C25.1089 51.3166 25.511 50.6029 25.964 49.9058C28.3291 46.1996 31.7401 43.2152 35.6568 41.2269M32.3489 34.7528C27.1492 37.3924 22.8208 41.2884 19.81 46.023C19.3152 46.805 18.8209 47.6717 18.2851 48.6657C18.0674 49.0734 17.8498 49.4812 17.6576 49.8972C16.7126 51.842 15.8872 53.9384 15.2233 56.144C11.9952 66.8917 12.2987 80.539 16.1969 99.0923C18.7608 111.295 22.5446 123.6 27.4444 135.636C28.6048 138.465 29.593 140.83 30.5801 143.026L54.5468 196.426L56.9761 201.839C56.0841 216.603 52.3038 225.677 52.2706 225.779L44.7834 243.445L62.0738 235.177C62.4114 235.006 62.7659 234.826 63.1036 234.654C71.7641 230.258 78.0082 223.945 82.532 217.381C82.1111 230.271 79.6791 239.659 79.6293 239.811L72.7519 265.831L91.7801 246.807C111.768 226.83 116.589 213.49 117.186 200.404C133.671 209.871 154.567 212.512 168.055 208.383L181.907 204.132L170.221 195.584C167.686 193.728 165.093 191.966 162.602 190.279C158.75 187.669 154.856 185.018 150.653 181.716C163.208 182.774 170.871 180.009 174.366 178.235C175.193 177.815 175.724 177.481 175.96 177.319L187.032 169.851L174.74 164.626C167.566 161.579 160.096 157.027 154.544 153.327L151.172 147.395L121.831 95.8731C120.727 93.9493 119.521 91.9076 118.11 89.6301C110.55 77.4157 101.709 66.0643 91.8333 55.8962C82.0514 45.8292 71.3542 38.3925 60.9148 34.3497C58.114 33.266 55.374 32.4276 52.7542 31.8678C46.1072 30.4436 38.8739 31.4615 32.3743 34.7611L32.3489 34.7528Z" fill="black"/>
<path d="M87.5592 158.774L95.1776 159.811L97.9586 153.494" stroke="black" stroke-width="2.73" stroke-linecap="round" stroke-linejoin="round"/>
<path d="M70.3929 148.549L81.1327 149.084L75.578 158.762" stroke="black" stroke-width="2.73" stroke-linecap="round" stroke-linejoin="round"/>
<path d="M99.177 133.936L93.2709 142.922L104.362 144.15" stroke="black" stroke-width="2.73" stroke-linecap="round" stroke-linejoin="round"/>
</g>
<defs>
<clipPath id="clip0_88_191">
<rect width="126" height="273" fill="white"/>
</clipPath>
</defs>
</svg>
