<svg width="85" height="119" viewBox="0 0 85 119" fill="none" xmlns="http://www.w3.org/2000/svg">
<path d="M36.05 6.56L34.89 5.72C35.09 5.44 35.63 4.69 36.59 4.69H37.23L37.76 5.14999L39.2 6.50999L37.58 7.64C37.43 7.74 37.29 7.85001 37.14 7.96001L36.05 6.56Z" fill="#EFAA56"/>
<path d="M36.59 6.3C36.59 6.3 36.64 6.3 36.66 6.33C36.5 6.44 36.34 6.56001 36.17 6.68001L36.19 6.66C36.37 6.41 36.5 6.3 36.59 6.3Z" fill="black"/>
<path d="M19.65 48.27C17.48 48.27 15.24 46.7 13.49 43.96C11.29 40.51 9.81001 34.89 11.76 30.69C14.59 24.59 26.23 13.5 32.92 7.44L35.16 9.74001C31.77 13.29 28.99 19.22 26.67 27.86C25.05 33.91 23.95 40.28 23.4 46.8L23.28 48.27H19.65Z" fill="#EFAA56"/>
<path d="M34 8.63C30.72 12.07 27.74 17.69 25.12 27.44C23.42 33.77 22.34 40.2 21.8 46.66H19.65C15.27 46.66 10.58 37.05 13.22 31.37C16.05 25.28 28.82 13.33 34 8.63ZM31.84 6.25C25.07 12.4 13.26 23.66 10.31 30.02C8.09001 34.79 9.63001 40.9 12.14 44.83C14.22 48.09 16.89 49.88 19.65 49.88H24.76L25.01 46.93C25.55 40.51 26.63 34.23 28.23 28.27C30.48 19.9 33.13 14.2 36.33 10.85L31.85 6.25H31.84Z" fill="black"/>
<path d="M66.38 48.27L66.26 46.8C65.66 39.63 64.28 32.56 62.17 25.79C60.2 19.45 57.34 14.09 53.91 10.27L56.19 8.00999C62.67 13.93 73.95 24.74 76.72 30.69C78.67 34.89 77.19 40.51 74.99 43.96C73.24 46.7 71 48.27 68.83 48.27H66.38Z" fill="#EFAA56"/>
<path d="M55.1 9.2C60.61 14.23 72.53 25.52 75.25 31.37C77.89 37.06 73.21 46.66 68.82 46.66H67.85C67.24 39.46 65.87 32.31 63.7 25.31C61.57 18.48 58.54 13.03 55.1 9.2ZM57.26 6.82001L52.71 11.34C55.99 14.99 58.73 20.15 60.63 26.26C62.7 32.92 64.06 39.87 64.65 46.93L64.9 49.87H68.82C71.59 49.87 74.25 48.08 76.33 44.82C78.84 40.89 80.38 34.79 78.16 30.01C75.42 24.11 65.28 14.14 57.26 6.82001Z" fill="black"/>
<path d="M19.08 109.17C19.16 109.08 25.25 102.16 29.16 92.39C25.04 95.92 18.88 99.6 11.1 99.6C10.91 99.6 10.72 99.6 10.54 99.6L5.41002 99.48L9.36002 96.21C9.41002 96.17 14.36 91.97 18.84 83.57H18.04L19.61 50.69C19.67 49.43 19.76 48.11 19.89 46.52C20.45 39.79 21.59 33.21 23.27 26.96C25.78 17.61 28.75 11.37 32.61 7.32001C33.38 6.52001 34.19 5.79 35.02 5.16C35.2 5.02 35.38 4.88999 35.56 4.75999C35.96 4.47999 36.37 4.21001 36.78 3.96001C39.03 2.63001 41.66 1.92 44.4 1.92C47.81 1.92 51.04 3.02 53.48 5C54.5 5.83 55.52 6.81 56.52 7.91C60.29 12.1 63.4 17.92 65.53 24.74C67.71 31.75 69.14 39.07 69.76 46.5C69.88 47.93 69.96 49.13 70.02 50.27L71.61 83.56H70.6C72.32 86.8 75.45 92.28 78.95 96.45L81.17 99.09L77.72 99.58C77.72 99.58 77.47 99.62 76.99 99.62C75.04 99.62 68.88 98.98 60.68 91.92C62.68 97.7 64.81 101.56 66.89 105.33C67.69 106.77 68.44 108.14 69.18 109.59L70.91 113L67.14 112.34C59.56 111.02 49.43 103.62 44.65 94.29C41.34 101.5 37.03 107.07 21.1 112.27L14.36 114.47L19.07 109.17H19.08Z" fill="#EFAA56"/>
<path d="M44.4 3.83C47.26 3.83 50.11 4.72 52.28 6.48C53.24 7.26 54.19 8.17 55.1 9.19C58.55 13.02 61.58 18.47 63.7 25.3C65.88 32.3 67.25 39.45 67.85 46.65C67.95 47.88 68.04 49.11 68.1 50.35L69.6 81.63H67.47C67.47 81.63 71.98 91.12 77.48 97.67C77.48 97.67 77.31 97.69 76.99 97.69C74.99 97.69 67.1 96.88 56.73 85.33C60.06 98.47 64.15 103.9 67.47 110.45C59.95 109.14 48.05 100.47 44.7 89.34C40.9 98.37 38.57 104.55 20.51 110.45C20.51 110.45 30.44 99.31 33.45 84.9C33.45 84.9 24.94 97.68 11.1 97.68C10.93 97.68 10.75 97.68 10.58 97.68C10.58 97.68 16.9 92.44 21.93 81.64H20.04L21.52 50.76C21.59 49.39 21.68 48.03 21.8 46.66C22.34 40.19 23.42 33.76 25.12 27.44C27.74 17.69 30.72 12.07 34 8.63C34.71 7.89001 35.44 7.24001 36.17 6.68001C36.33 6.56001 36.49 6.44 36.66 6.33C37.03 6.07 37.39 5.83 37.77 5.61C39.77 4.43 42.09 3.84 44.41 3.84M44.4 0C41.32 0 38.35 0.799998 35.8 2.31C35.38 2.56 34.94 2.85 34.45 3.19C34.25 3.33 34.05 3.47 33.86 3.62C32.95 4.31 32.06 5.1 31.22 5.98C27.13 10.27 24.01 16.77 21.41 26.44C19.7 32.8 18.54 39.5 17.97 46.34C17.84 47.95 17.74 49.3 17.68 50.57L16.2 81.45L16.05 84.58C12.1 91.32 8.15002 94.69 8.11002 94.73L0.360016 101.26L10.48 101.5C10.68 101.5 10.89 101.5 11.09 101.5C16.22 101.5 20.67 100.02 24.37 98.01C21.09 103.98 17.7 107.82 17.64 107.88L8.18002 118.49L21.69 114.08C35.88 109.45 41.34 104.32 44.75 98.3C50.25 106.7 59.46 112.94 66.8 114.22L74.34 115.53L70.88 108.71C70.13 107.23 69.33 105.78 68.56 104.39C67.37 102.24 66.17 100.06 64.98 97.5C70.64 101 74.91 101.53 76.98 101.53C77.47 101.53 77.8 101.5 77.95 101.48L84.95 100.61L80.41 95.21C77.76 92.06 75.33 88.13 73.6 85.06L73.43 81.46L71.93 50.18C71.87 49.01 71.79 47.76 71.67 46.35C71.03 38.79 69.58 31.33 67.36 24.18C65.16 17.1 61.9 11.04 57.95 6.64C56.89 5.46 55.8 4.41 54.7 3.52C51.91 1.26 48.26 0.00999451 44.41 0.00999451L44.4 0Z" fill="black"/>
<path d="M40.75 71.61L44.09 73.92L46.91 71.61" stroke="black" stroke-width="2.73" stroke-linecap="round" stroke-linejoin="round"/>
<path d="M35.11 62.69L40.04 65.51L35.11 68.74" stroke="black" stroke-width="2.73" stroke-linecap="round" stroke-linejoin="round"/>
<path d="M52.16 62.69L47.23 65.51L52.16 68.74" stroke="black" stroke-width="2.73" stroke-linecap="round" stroke-linejoin="round"/>
</svg>
