<svg width="331" height="39" viewBox="0 0 331 39" fill="none" xmlns="http://www.w3.org/2000/svg">
<rect x="12.5" y="16.5" width="317" height="12" rx="6" fill="white" stroke="#063B8A" stroke-width="3"/>
<g clip-path="url(#clip0_206_4269)">
<path d="M34.29 22.02C33.43 22.02 32.63 21.49 32.32 20.64C31.36 18.02 30.2 15.52 28.87 13.21C27.03 10.02 25.36 7.98 23.76 6.99C22.8 6.38999 22.49 5.14 23.05 4.17C23.44 3.5 24.14 3.12 24.87 3.12C25.2 3.12 25.54 3.2 25.85 3.36C30.15 5.63 35.67 8.82999 37.59 11.15C39.26 13.17 39.33 16.25 38.65 18.4C38.1 20.15 37.06 21.32 35.73 21.69L34.85 21.93C34.66 21.98 34.47 22.01 34.29 22.01V22.02Z" fill="#80E5D1"/>
<path d="M24.87 5.21002C27.52 6.61002 34.11 10.23 35.98 12.49C37.72 14.6 36.95 19.19 35.17 19.68L34.3 19.92C33.32 17.25 32.13 14.65 30.69 12.16C28.48 8.33002 26.61 6.29002 24.88 5.21002M24.87 1.02002C23.42 1.02002 22.01 1.78002 21.23 3.12002C20.1 5.08002 20.73 7.57002 22.64 8.77002C23.92 9.57002 25.4 11.42 27.04 14.26C28.31 16.46 29.42 18.85 30.34 21.36C30.96 23.05 32.56 24.11 34.27 24.11C34.64 24.11 35.02 24.06 35.39 23.96L36.26 23.72C38.3 23.15 39.85 21.49 40.62 19.04C41.47 16.35 41.35 12.45 39.18 9.82002C37.46 7.74002 33.3 4.94002 26.8 1.51002C26.18 1.18002 25.51 1.02002 24.84 1.02002H24.87Z" fill="black"/>
<path d="M7.89998 22.02C7.70998 22.02 7.52998 22 7.33998 21.94L6.46998 21.7C5.13998 21.33 4.09998 20.16 3.54998 18.41C2.86998 16.26 2.93998 13.18 4.60998 11.16C6.52998 8.84 12.05 5.64 16.35 3.37C16.66 3.2 17 3.13 17.33 3.13C18.06 3.13 18.76 3.51 19.15 4.18C19.71 5.16 19.4 6.41 18.44 7C16.84 8 15.17 10.03 13.33 13.22C12 15.53 10.84 18.03 9.87998 20.65C9.56998 21.49 8.76998 22.03 7.90998 22.03L7.89998 22.02Z" fill="#80E5D1"/>
<path d="M17.32 5.21002C15.58 6.29002 13.71 8.34002 11.51 12.16C10.08 14.65 8.87999 17.24 7.89999 19.92L7.02999 19.68C5.24999 19.19 4.47999 14.59 6.21999 12.49C8.07999 10.23 14.67 6.62002 17.33 5.21002M17.31 1.02002C17 1.02002 16.69 1.05002 16.38 1.13002C15.99 1.22002 15.62 1.36002 15.28 1.55002C8.82999 4.96002 4.68999 7.75002 2.97999 9.82002C0.809989 12.45 0.689989 16.34 1.53999 19.04C2.30999 21.49 3.85999 23.16 5.89999 23.72L6.76999 23.96C7.13999 24.06 7.51999 24.11 7.88999 24.11C9.60999 24.11 11.21 23.05 11.82 21.36C12.74 18.85 13.85 16.46 15.12 14.26C16.74 11.45 18.2 9.62002 19.47 8.80002C20.69 8.07002 21.5 6.73002 21.5 5.21002C21.5 2.98002 19.77 1.16002 17.58 1.03002C17.49 1.03002 17.4 1.03002 17.31 1.03002V1.02002Z" fill="black"/>
<path d="M15.95 4.91994L2.79 27.7199C0.540002 31.6099 3.35 36.4799 7.85 36.4799H34.18C38.67 36.4799 41.48 31.6199 39.24 27.7199L26.06 4.91994C23.81 1.02994 18.2 1.02994 15.95 4.91994Z" fill="#80E5D1" stroke="black" stroke-width="4" stroke-miterlimit="10"/>
<path d="M17.93 28.0699L21.27 30.3799L24.09 28.0699" stroke="black" stroke-width="2.73" stroke-linecap="round" stroke-linejoin="round"/>
<path d="M15.15 24.03C16.4755 24.03 17.55 22.9555 17.55 21.63C17.55 20.3045 16.4755 19.23 15.15 19.23C13.8245 19.23 12.75 20.3045 12.75 21.63C12.75 22.9555 13.8245 24.03 15.15 24.03Z" fill="black"/>
<path d="M26.87 24.03C28.1955 24.03 29.27 22.9555 29.27 21.63C29.27 20.3045 28.1955 19.23 26.87 19.23C25.5445 19.23 24.47 20.3045 24.47 21.63C24.47 22.9555 25.5445 24.03 26.87 24.03Z" fill="black"/>
</g>
<defs>
<clipPath id="clip0_206_4269">
<rect width="42.02" height="38.47" fill="white"/>
</clipPath>
</defs>
</svg>
