<svg width="86" height="119" viewBox="0 0 86 119" fill="none" xmlns="http://www.w3.org/2000/svg">
<path d="M36.38 6.55002L34.9901 5.54001C35.2001 5.25001 35.8301 4.39001 36.9401 4.39001H37.7L38.32 4.94L40.04 6.56L38.1 7.91C37.96 8.01 37.81 8.11 37.67 8.22L36.38 6.55002Z" fill="#F2BBE8"/>
<path d="M36.95 6.30002C36.95 6.30002 37 6.30002 37.02 6.33002C36.86 6.44002 36.7 6.55999 36.53 6.67999L36.55 6.66C36.73 6.41 36.86 6.30002 36.95 6.30002Z" fill="black"/>
<path d="M20.0001 48.58C17.6901 48.58 15.4101 47 13.5801 44.13C11.2601 40.5 9.82007 34.89 11.8301 30.57C14.6901 24.42 26.3601 13.3 33.0601 7.22L35.7301 9.95999C32.3701 13.47 29.6201 19.36 27.3101 27.94C25.6901 33.97 24.5901 40.32 24.0501 46.83L23.9001 48.59H19.9801L20.0001 48.58Z" fill="#F2BBE8"/>
<path d="M34.35 8.63C31.07 12.07 28.0901 17.69 25.4701 27.44C23.7701 33.77 22.6901 40.2 22.1501 46.66H20.0001C15.6201 46.66 10.93 37.05 13.57 31.37C16.4 25.28 29.17 13.33 34.35 8.63ZM31.7801 5.79001C24.9701 11.97 13.1 23.3 10.1 29.76C7.78004 34.75 9.37006 41.09 11.9701 45.16C14.1701 48.6 17.02 50.5 20.01 50.5H25.6901L25.98 46.98C26.51 40.59 27.5901 34.35 29.1801 28.43C31.4001 20.16 34 14.55 37.13 11.27L31.7801 5.78V5.79001Z" fill="black"/>
<path d="M66.45 48.58L66.3 46.82C65.7 39.67 64.33 32.62 62.23 25.88C60.27 19.59 57.44 14.26 54.03 10.48L56.75 7.78C63.25 13.71 74.56 24.56 77.35 30.56C79.36 34.89 77.92 40.49 75.6 44.12C73.77 46.99 71.49 48.57 69.18 48.57H66.45V48.58Z" fill="#F2BBE8"/>
<path d="M55.45 9.20001C60.96 14.23 72.88 25.52 75.6 31.37C78.24 37.06 73.56 46.66 69.17 46.66H68.2C67.59 39.46 66.22 32.31 64.05 25.31C61.92 18.48 58.89 13.03 55.45 9.20001ZM58.04 6.37L52.6 11.77C55.82 15.35 58.52 20.43 60.39 26.46C62.45 33.08 63.79 39.98 64.38 46.99L64.6801 50.5H69.1801C72.1701 50.5 75.0201 48.6 77.2201 45.16C79.8201 41.09 81.4001 34.74 79.0901 29.76C76.3101 23.77 66.11 13.73 58.04 6.37Z" fill="black"/>
<path d="M19.43 109.17C19.51 109.08 25.6 102.16 29.51 92.39C25.39 95.93 19.23 99.6 11.45 99.6C11.26 99.6 11.07 99.6 10.89 99.6L5.76004 99.48L9.71004 96.21C9.76004 96.17 14.71 91.97 19.19 83.57H18.39L19.96 50.69C20.02 49.43 20.11 48.06 20.24 46.52C20.8 39.79 21.94 33.21 23.62 26.96C26.13 17.61 29.1 11.37 32.96 7.32001C33.73 6.52001 34.54 5.79001 35.37 5.17001C35.55 5.03001 35.74 4.90002 35.92 4.77002C36.32 4.49002 36.73 4.22 37.14 3.97C39.39 2.64 42.02 1.92999 44.76 1.92999C48.17 1.92999 51.4 3.03001 53.84 5.01001C54.86 5.84001 55.88 6.82001 56.88 7.92001C60.65 12.11 63.76 17.93 65.89 24.75C68.07 31.76 69.5 39.08 70.12 46.51C70.24 47.94 70.32 49.13 70.38 50.28L71.97 83.57H70.96C72.68 86.81 75.81 92.29 79.31 96.46L81.53 99.1L78.08 99.6C78.08 99.6 77.83 99.64 77.35 99.64C75.4 99.64 69.24 99 61.04 91.94C63.04 97.72 65.17 101.58 67.25 105.35C68.05 106.79 68.8 108.16 69.54 109.61L71.27 113.02L67.5 112.36C59.92 111.04 49.79 103.64 45.01 94.31C41.7 101.52 37.39 107.09 21.46 112.29L14.72 114.49L19.43 109.19V109.17Z" fill="#F2BBE8"/>
<path d="M44.76 3.84C47.62 3.84 50.47 4.72999 52.64 6.48999C53.6 7.26999 54.55 8.18001 55.46 9.20001C58.91 13.03 61.94 18.48 64.06 25.31C66.24 32.31 67.61 39.46 68.21 46.66C68.31 47.89 68.4 49.12 68.46 50.36L69.96 81.64H67.83C67.83 81.64 72.34 91.13 77.84 97.68C77.84 97.68 77.67 97.7 77.35 97.7C75.35 97.7 67.46 96.89 57.09 85.34C60.42 98.48 64.51 103.91 67.83 110.46C60.31 109.15 48.41 100.48 45.06 89.35C41.26 98.38 38.93 104.56 20.87 110.46C20.87 110.46 30.8 99.32 33.81 84.91C33.81 84.91 25.3 97.69 11.46 97.69C11.29 97.69 11.11 97.69 10.94 97.69C10.94 97.69 17.26 92.45 22.29 81.65H20.4L21.88 50.77C21.95 49.4 22.04 48.04 22.16 46.67C22.7001 40.2 23.78 33.77 25.48 27.45C28.1 17.7 31.08 12.08 34.36 8.64001C35.07 7.90001 35.8 7.25 36.53 6.69C36.69 6.57 36.85 6.45 37.02 6.34C37.39 6.08 37.75 5.83999 38.13 5.62C40.13 4.44 42.45 3.85001 44.77 3.85001M44.76 0C41.68 0 38.71 0.799998 36.16 2.31C35.7401 2.56 35.3 2.85 34.81 3.19C34.61 3.33 34.41 3.47 34.22 3.62C33.31 4.31 32.42 5.10001 31.58 5.98001C27.49 10.27 24.37 16.77 21.77 26.44C20.06 32.8 18.9 39.5 18.33 46.34C18.2 47.95 18.1 49.3 18.04 50.57L16.56 81.45L16.41 84.58C12.46 91.32 8.51005 94.69 8.47005 94.73L0.720032 101.26L10.84 101.5C11.04 101.5 11.25 101.5 11.45 101.5C16.58 101.5 21.03 100.02 24.73 98.01C21.45 103.98 18.06 107.82 18 107.88L8.54002 118.49L22.05 114.08C36.24 109.45 41.7 104.32 45.11 98.3C50.61 106.7 59.82 112.94 67.16 114.22L74.7 115.53L71.24 108.71C70.49 107.23 69.69 105.78 68.92 104.39C67.73 102.24 66.53 100.06 65.34 97.5C71 101 75.27 101.53 77.34 101.53C77.83 101.53 78.16 101.5 78.31 101.48L85.31 100.61L80.77 95.21C78.12 92.06 75.69 88.13 73.96 85.06L73.79 81.46L72.29 50.18C72.23 49.01 72.15 47.76 72.03 46.35C71.39 38.79 69.94 31.33 67.72 24.18C65.5201 17.1 62.26 11.04 58.31 6.64001C57.25 5.46001 56.16 4.41002 55.06 3.52002C52.27 1.26002 48.62 0.0100098 44.77 0.0100098L44.76 0Z" fill="black"/>
<path d="M35.47 62.69L40.4 65.52L35.47 68.74" stroke="black" stroke-width="2.73" stroke-linecap="round" stroke-linejoin="round"/>
<path d="M52.51 62.69L47.59 65.52L52.51 68.74" stroke="black" stroke-width="2.73" stroke-linecap="round" stroke-linejoin="round"/>
<path d="M43.54 75L41.54 71.53C41.16 70.88 41.63 70.06 42.39 70.06H46.4C47.15 70.06 47.63 70.88 47.25 71.53L45.25 75C44.87 75.65 43.93 75.65 43.55 75H43.54Z" stroke="black" stroke-width="2.7" stroke-miterlimit="10"/>
</svg>
