<svg width="113" height="113" viewBox="0 0 113 113" fill="none" xmlns="http://www.w3.org/2000/svg">
<path fill-rule="evenodd" clip-rule="evenodd" d="M48.749 35.4203C47.5736 34.6059 47.3013 32.9656 48.2863 31.9329C54.302 25.6818 63.2212 24.2662 72.5289 30.7151C81.8407 37.1669 84.2192 47.1453 78.9 54.8224C75.0461 60.3846 69.5871 62.3846 62.967 61.9936C56.5249 61.5667 53.9092 62.5659 51.3514 66.2575L51.2654 66.3817C50.8851 66.9305 50.3024 67.3058 49.6455 67.425C48.9886 67.5442 48.3112 67.3975 47.7624 67.0172L44.5757 64.8093C44.0304 64.4315 43.6563 63.8538 43.5346 63.2018C43.4129 62.5497 43.5535 61.876 43.9258 61.327L44.4868 60.4906C47.8101 55.3141 52.1988 53.5771 59.0714 53.9838C65.1464 54.3217 68.1075 53.2924 70.6682 49.5966C73.4754 45.545 72.4001 40.3958 67.5663 37.0466C63.3904 34.1533 58.9724 34.3325 55.5255 37.2917C54.524 38.1537 53.0531 38.4025 51.9688 37.6512L48.749 35.4203ZM36.7577 79.4346C39.3319 81.2182 42.6486 80.6128 44.415 78.0634C46.1871 75.5058 45.5887 72.1878 43.0145 70.4042C40.5065 68.6666 37.1567 69.249 35.3875 71.8025C33.6182 74.356 34.2497 77.6969 36.7577 79.4346Z" fill="#063B8A"/>
</svg>
