<svg width="86" height="119" viewBox="0 0 86 119" fill="none" xmlns="http://www.w3.org/2000/svg">
<path d="M36.46 6.56L35.3 5.72C35.5 5.44 36.04 4.69 37 4.69H37.64L38.17 5.15L39.61 6.51L37.99 7.64C37.84 7.74 37.7 7.85 37.55 7.96L36.46 6.56Z" fill="#E03B3B"/>
<path d="M37 6.3C37 6.3 37.05 6.3 37.07 6.33C36.91 6.44 36.75 6.56 36.58 6.68L36.6 6.66C36.78 6.41 36.91 6.3 37 6.3Z" fill="black"/>
<path d="M20.05 48.27C17.88 48.27 15.64 46.7 13.89 43.96C11.69 40.51 10.21 34.89 12.16 30.69C14.99 24.59 26.63 13.5 33.32 7.44L35.56 9.74C32.17 13.29 29.39 19.22 27.07 27.86C25.45 33.91 24.35 40.28 23.8 46.8L23.68 48.27H20.05Z" fill="#E03B3B"/>
<path d="M34.4 8.63C31.12 12.07 28.14 17.69 25.52 27.44C23.82 33.77 22.74 40.2 22.2 46.66H20.05C15.67 46.66 10.98 37.05 13.62 31.37C16.45 25.28 29.22 13.33 34.4 8.63ZM32.25 6.25C25.48 12.4 13.67 23.66 10.72 30.02C8.50002 34.79 10.04 40.9 12.55 44.83C14.63 48.09 17.3 49.88 20.06 49.88H25.17L25.42 46.93C25.96 40.51 27.04 34.23 28.64 28.27C30.89 19.9 33.54 14.2 36.74 10.85L32.26 6.25H32.25Z" fill="black"/>
<path d="M66.79 48.27L66.67 46.8C66.07 39.63 64.69 32.56 62.58 25.79C60.61 19.46 57.75 14.09 54.32 10.27L56.6 8.01001C63.08 13.93 74.36 24.74 77.13 30.69C79.08 34.89 77.6 40.51 75.4 43.96C73.65 46.7 71.41 48.27 69.24 48.27H66.79Z" fill="#E03B3B"/>
<path d="M55.51 9.20001C61.02 14.23 72.94 25.52 75.66 31.37C78.3 37.06 73.62 46.66 69.23 46.66H68.26C67.65 39.46 66.28 32.31 64.11 25.31C61.98 18.48 58.95 13.03 55.51 9.20001ZM57.67 6.82001L53.12 11.34C56.4 14.99 59.14 20.15 61.04 26.26C63.11 32.92 64.47 39.87 65.06 46.93L65.31 49.87H69.23C72 49.87 74.66 48.08 76.74 44.82C79.25 40.89 80.79 34.79 78.57 30.01C75.83 24.11 65.69 14.14 57.67 6.82001Z" fill="black"/>
<path d="M19.49 109.17C19.57 109.08 25.66 102.16 29.57 92.39C25.45 95.92 19.29 99.6 11.51 99.6C11.32 99.6 11.13 99.6 10.95 99.6L5.82001 99.48L9.77002 96.21C9.82002 96.17 14.77 91.97 19.25 83.57H18.45L20.02 50.69C20.08 49.44 20.17 48.11 20.3 46.52C20.86 39.79 22 33.21 23.68 26.96C26.19 17.61 29.16 11.37 33.02 7.32C33.79 6.52 34.6 5.79 35.43 5.16C35.61 5.02 35.79 4.89 35.97 4.76C36.37 4.48 36.78 4.21 37.19 3.96C39.44 2.63 42.07 1.92 44.81 1.92C48.22 1.92 51.45 3.01 53.89 5C54.91 5.83 55.93 6.81 56.93 7.91C60.7 12.1 63.82 17.92 65.94 24.74C68.12 31.75 69.55 39.07 70.17 46.5C70.29 47.93 70.37 49.13 70.43 50.27L72.02 83.56H71.01C72.73 86.8 75.86 92.28 79.36 96.45L81.58 99.09L78.13 99.58C78.13 99.58 77.88 99.62 77.4 99.62C75.45 99.62 69.29 98.98 61.09 91.92C63.09 97.7 65.22 101.56 67.3 105.33C68.1 106.77 68.85 108.14 69.59 109.59L71.32 113L67.55 112.34C59.97 111.02 49.84 103.62 45.06 94.29C41.75 101.5 37.44 107.07 21.51 112.27L14.77 114.47L19.48 109.17H19.49Z" fill="#E03B3B"/>
<path d="M44.81 3.83C47.67 3.83 50.52 4.72 52.69 6.48C53.65 7.26 54.6 8.17 55.51 9.19C58.96 13.02 61.99 18.47 64.11 25.3C66.29 32.3 67.66 39.45 68.26 46.65C68.36 47.88 68.45 49.11 68.51 50.35L70.01 81.63H67.88C67.88 81.63 72.39 91.12 77.89 97.67C77.89 97.67 77.72 97.69 77.4 97.69C75.4 97.69 67.51 96.88 57.14 85.33C60.47 98.47 64.56 103.9 67.88 110.45C60.36 109.14 48.46 100.47 45.11 89.34C41.31 98.37 38.98 104.55 20.92 110.45C20.92 110.45 30.85 99.31 33.86 84.9C33.86 84.9 25.35 97.68 11.51 97.68C11.34 97.68 11.16 97.68 10.99 97.68C10.99 97.68 17.31 92.44 22.34 81.64H20.45L21.93 50.76C22 49.39 22.09 48.03 22.21 46.66C22.75 40.19 23.83 33.76 25.53 27.44C28.15 17.69 31.13 12.07 34.41 8.63C35.12 7.89 35.85 7.24 36.58 6.68C36.74 6.56 36.9 6.44 37.07 6.33C37.44 6.07 37.8 5.83 38.18 5.61C40.18 4.43 42.5 3.84 44.82 3.84M44.81 0C41.73 0 38.76 0.8 36.21 2.31C35.79 2.56 35.35 2.85 34.86 3.19C34.66 3.33 34.46 3.47 34.27 3.62C33.36 4.31 32.47 5.1 31.63 5.98C27.54 10.27 24.42 16.77 21.82 26.44C20.11 32.8 18.95 39.5 18.38 46.34C18.25 47.95 18.15 49.3 18.09 50.57L16.61 81.45L16.46 84.58C12.51 91.32 8.56002 94.69 8.52002 94.73L0.77002 101.26L10.89 101.5C11.09 101.5 11.3 101.5 11.5 101.5C16.63 101.5 21.08 100.02 24.78 98.01C21.5 103.98 18.11 107.82 18.05 107.88L8.59003 118.49L22.1 114.08C36.29 109.45 41.75 104.32 45.16 98.3C50.66 106.7 59.87 112.94 67.21 114.22L74.75 115.53L71.29 108.71C70.54 107.23 69.74 105.78 68.97 104.39C67.78 102.24 66.58 100.06 65.39 97.5C71.05 101 75.32 101.53 77.39 101.53C77.88 101.53 78.21 101.5 78.36 101.48L85.36 100.61L80.82 95.21C78.17 92.06 75.74 88.13 74.01 85.06L73.84 81.46L72.34 50.18C72.28 49.01 72.2 47.76 72.08 46.35C71.44 38.79 69.99 31.33 67.77 24.18C65.57 17.1 62.31 11.04 58.36 6.64C57.3 5.46 56.21 4.41 55.11 3.52C52.31 1.25 48.66 0 44.81 0Z" fill="black"/>
<path d="M41.16 73.93L44.5 71.61L47.32 73.93" stroke="black" stroke-width="2.73" stroke-linecap="round" stroke-linejoin="round"/>
<path d="M53.63 63.29C50.88 66.46 47.71 67.06 47.71 67.06" stroke="black" stroke-width="2.73" stroke-linecap="round" stroke-linejoin="round"/>
<path d="M35.99 63.29C38.74 66.46 41.91 67.06 41.91 67.06" stroke="black" stroke-width="2.73" stroke-linecap="round" stroke-linejoin="round"/>
</svg>
