<svg width="70" height="70" viewBox="0 0 70 70" fill="none" xmlns="http://www.w3.org/2000/svg">
<rect x="3.5" y="3.5" width="63" height="63" rx="31.5" fill="#063B8A" stroke="#063B8A" stroke-width="3"/>
<path fill-rule="evenodd" clip-rule="evenodd" d="M24.6012 29.5638C24.2828 29.5638 23.9775 29.6873 23.7524 29.907C23.5272 30.1268 23.4008 30.4248 23.4008 30.7356V49.4845C23.4008 49.7953 23.5272 50.0933 23.7524 50.3131C23.9775 50.5328 24.2828 50.6563 24.6012 50.6563H46.2081C46.5264 50.6563 46.8318 50.5328 47.0569 50.3131C47.282 50.0933 47.4085 49.7953 47.4085 49.4845V30.7356C47.4085 30.4248 47.282 30.1268 47.0569 29.907C46.8318 29.6873 46.5264 29.5638 46.2081 29.5638H41.4065C41.0882 29.5638 40.7829 29.4404 40.5577 29.2206C40.3326 29.0009 40.2062 28.7028 40.2062 28.392C40.2062 28.0812 40.3326 27.7832 40.5577 27.5634C40.7829 27.3437 41.0882 27.2202 41.4065 27.2202H46.2081C47.1632 27.2202 48.0791 27.5906 48.7545 28.2499C49.4298 28.9091 49.8092 29.8033 49.8092 30.7356V49.4845C49.8092 50.4168 49.4298 51.311 48.7545 51.9703C48.0791 52.6295 47.1632 52.9999 46.2081 52.9999H24.6012C23.6461 52.9999 22.7301 52.6295 22.0548 51.9703C21.3794 51.311 21 50.4168 21 49.4845V30.7356C21 29.8033 21.3794 28.9091 22.0548 28.2499C22.7301 27.5906 23.6461 27.2202 24.6012 27.2202H29.4027C29.7211 27.2202 30.0264 27.3437 30.2515 27.5634C30.4766 27.7832 30.6031 28.0812 30.6031 28.392C30.6031 28.7028 30.4766 29.0009 30.2515 29.2206C30.0264 29.4404 29.7211 29.5638 29.4027 29.5638H24.6012Z" fill="white" stroke="white"/>
<path fill-rule="evenodd" clip-rule="evenodd" d="M34.5548 15.8443C34.6663 15.7351 34.7987 15.6486 34.9446 15.5895C35.0904 15.5304 35.2467 15.5 35.4046 15.5C35.5625 15.5 35.7189 15.5304 35.8647 15.5895C36.0105 15.6486 36.143 15.7351 36.2545 15.8443L43.4568 22.8751C43.6822 23.0951 43.8088 23.3935 43.8088 23.7047C43.8088 24.0159 43.6822 24.3143 43.4568 24.5344C43.2314 24.7544 42.9257 24.878 42.6069 24.878C42.2882 24.878 41.9825 24.7544 41.7571 24.5344L36.605 19.5026V40.11C36.605 40.4208 36.4785 40.7188 36.2534 40.9386C36.0283 41.1583 35.723 41.2818 35.4046 41.2818C35.0863 41.2818 34.7809 41.1583 34.5558 40.9386C34.3307 40.7188 34.2042 40.4208 34.2042 40.11V19.5026L29.0522 24.5344C28.9406 24.6433 28.8081 24.7297 28.6623 24.7887C28.5164 24.8477 28.3602 24.878 28.2023 24.878C27.8836 24.878 27.5778 24.7544 27.3524 24.5344C27.2408 24.4254 27.1523 24.2961 27.0919 24.1537C27.0315 24.0114 27.0004 23.8588 27.0004 23.7047C27.0004 23.3935 27.127 23.0951 27.3524 22.8751L34.5548 15.8443Z" fill="white" stroke="white"/>
</svg>
