<svg width="86" height="119" viewBox="0 0 86 119" fill="none" xmlns="http://www.w3.org/2000/svg">
<path d="M36.28 6.31001L35.47 5.73001C35.67 5.45001 36.21 4.70001 37.17 4.70001H37.81L38.34 5.16L39.77 6.51001L38.16 7.64C38.01 7.74 37.87 7.85001 37.72 7.96001L36.28 6.3V6.31001Z" fill="#EAD65E"/>
<path d="M37.18 6.3C37.18 6.3 37.23 6.3 37.25 6.33C37.09 6.44 36.93 6.56001 36.76 6.68001L36.78 6.66C36.96 6.41 37.09 6.3 37.18 6.3Z" fill="black"/>
<path d="M20.24 48.27C18.07 48.27 15.83 46.7 14.08 43.96C11.88 40.51 10.4 34.89 12.35 30.69C15.18 24.59 26.82 13.5 33.51 7.44L35.75 9.74001C32.36 13.3 29.58 19.22 27.26 27.86C25.63 33.91 24.53 40.28 23.99 46.8L23.87 48.27H20.24Z" fill="#EAD65E"/>
<path d="M34.59 8.63C31.31 12.07 28.33 17.69 25.71 27.44C24.01 33.77 22.93 40.2 22.39 46.66H20.24C15.86 46.66 11.17 37.05 13.81 31.37C16.64 25.28 29.41 13.33 34.59 8.63ZM32.43 6.25C25.66 12.4 13.85 23.66 10.9 30.02C8.68001 34.79 10.22 40.9 12.73 44.83C14.81 48.09 17.48 49.88 20.24 49.88H25.35L25.6 46.93C26.14 40.51 27.22 34.23 28.82 28.27C31.07 19.9 33.72 14.2 36.92 10.85L32.44 6.25H32.43Z" fill="black"/>
<path d="M66.97 48.27L66.85 46.8C66.25 39.63 64.87 32.56 62.76 25.79C60.79 19.46 57.93 14.09 54.5 10.27L56.78 8.01001C63.26 13.93 74.54 24.74 77.31 30.69C79.26 34.89 77.78 40.51 75.59 43.95C73.84 46.69 71.6 48.26 69.43 48.26H66.98L66.97 48.27Z" fill="#EAD65E"/>
<path d="M55.69 9.20001C61.2 14.23 73.12 25.52 75.84 31.37C78.48 37.06 73.8 46.66 69.41 46.66H68.44C67.83 39.46 66.46 32.31 64.29 25.31C62.16 18.48 59.13 13.03 55.69 9.20001ZM57.85 6.83L53.3 11.35C56.58 15 59.32 20.16 61.22 26.27C63.29 32.93 64.65 39.88 65.24 46.94L65.49 49.88H69.41C72.18 49.88 74.84 48.09 76.92 44.83C79.43 40.9 80.97 34.8 78.75 30.02C76.01 24.12 65.87 14.15 57.85 6.83Z" fill="black"/>
<path d="M19.67 109.17C19.75 109.08 25.84 102.16 29.75 92.39C25.63 95.93 19.47 99.6 11.69 99.6C11.5 99.6 11.31 99.6 11.13 99.6L6 99.48L9.95 96.21C10 96.17 14.95 91.97 19.43 83.57H18.63L20.2 50.69C20.26 49.45 20.35 48.12 20.48 46.52C21.04 39.79 22.18 33.21 23.86 26.96C26.37 17.61 29.34 11.37 33.2 7.32001C33.97 6.52001 34.78 5.79 35.61 5.16C35.79 5.02 35.97 4.89 36.15 4.77C36.56 4.48 36.97 4.21 37.38 3.97C39.62 2.64 42.26 1.93001 45 1.93001C48.41 1.93001 51.63 3.03001 54.08 5.01001C55.1 5.84001 56.12 6.82001 57.12 7.92001C60.89 12.11 64.01 17.93 66.13 24.75C68.31 31.76 69.74 39.08 70.36 46.51C70.48 47.9 70.56 49.13 70.62 50.28L72.21 83.57H71.2C72.92 86.81 76.05 92.29 79.55 96.46L81.77 99.1L78.32 99.59C78.32 99.59 78.07 99.63 77.59 99.63C75.64 99.63 69.48 98.99 61.28 91.93C63.28 97.71 65.41 101.57 67.49 105.34C68.29 106.78 69.04 108.15 69.78 109.6L71.51 113.01L67.74 112.35C60.16 111.03 50.03 103.63 45.25 94.3C41.94 101.51 37.63 107.08 21.7 112.28L14.96 114.48L19.67 109.18V109.17Z" fill="#EAD65E"/>
<path d="M44.99 3.84001C47.85 3.84001 50.7 4.73001 52.87 6.49001C53.83 7.27001 54.78 8.18001 55.69 9.20001C59.14 13.03 62.17 18.48 64.29 25.31C66.47 32.31 67.84 39.46 68.44 46.66C68.54 47.89 68.63 49.12 68.69 50.36L70.19 81.64H68.06C68.06 81.64 72.57 91.13 78.07 97.68C78.07 97.68 77.9 97.7 77.58 97.7C75.58 97.7 67.69 96.89 57.32 85.34C60.65 98.48 64.74 103.91 68.06 110.46C60.54 109.15 48.64 100.48 45.29 89.35C41.49 98.38 39.16 104.56 21.1 110.46C21.1 110.46 31.03 99.32 34.04 84.91C34.04 84.91 25.53 97.69 11.69 97.69C11.52 97.69 11.34 97.69 11.17 97.69C11.17 97.69 17.49 92.45 22.52 81.65H20.63L22.11 50.77C22.18 49.4 22.27 48.04 22.39 46.67C22.93 40.2 24.01 33.77 25.71 27.45C28.33 17.7 31.31 12.08 34.59 8.64C35.3 7.9 36.03 7.25 36.76 6.69C36.92 6.57 37.08 6.45001 37.25 6.34001C37.62 6.08001 37.98 5.84001 38.36 5.62001C40.36 4.44001 42.68 3.85001 45 3.85001M44.99 0C41.91 0 38.94 0.800013 36.39 2.31001C35.97 2.56001 35.53 2.85 35.04 3.19C34.84 3.33 34.64 3.47001 34.45 3.62001C33.54 4.31001 32.65 5.10001 31.81 5.98001C27.72 10.27 24.6 16.77 22 26.44C20.29 32.8 19.13 39.5 18.56 46.34C18.43 47.95 18.33 49.3 18.27 50.57L16.79 81.45L16.64 84.58C12.69 91.32 8.74 94.69 8.7 94.73L0.950012 101.26L11.07 101.5C11.27 101.5 11.48 101.5 11.68 101.5C16.8 101.5 21.25 100.02 24.94 98.02C21.66 103.97 18.28 107.83 18.22 107.89L8.84 118.47L22.28 114.09C36.47 109.46 41.93 104.33 45.34 98.31C50.84 106.71 60.05 112.95 67.39 114.23L74.93 115.54L71.47 108.72C70.72 107.24 69.92 105.79 69.15 104.4C67.96 102.25 66.76 100.07 65.57 97.51C71.23 101.01 75.5 101.54 77.57 101.54C78.06 101.54 78.39 101.51 78.54 101.49L85.54 100.62L81 95.22C78.36 92.08 75.93 88.14 74.19 85.06L74.02 81.46L72.52 50.18C72.46 49.01 72.38 47.76 72.26 46.34C71.62 38.78 70.17 31.32 67.95 24.17C65.75 17.09 62.49 11.03 58.54 6.63C57.48 5.45001 56.39 4.40001 55.29 3.51001C52.5 1.25001 48.85 0 45 0H44.99Z" fill="black"/>
<path d="M41.34 71.62L44.68 73.93L47.5 71.62" stroke="black" stroke-width="2.73" stroke-linecap="round" stroke-linejoin="round"/>
<path d="M35.04 67.13C36.03 64.38 38.78 62.47 41.29 67.13" stroke="black" stroke-width="2.73" stroke-linecap="round" stroke-linejoin="round"/>
<path d="M47.16 67.13C48.15 64.38 50.9 62.47 53.41 67.13" stroke="black" stroke-width="2.73" stroke-linecap="round" stroke-linejoin="round"/>
</svg>
