<svg width="133" height="275" viewBox="0 0 133 275" fill="none" xmlns="http://www.w3.org/2000/svg">
<g clip-path="url(#clip0_88_160)">
<path d="M83.984 43.3373L83.1784 41.6208C83.7709 41.3419 85.3652 40.5986 86.9593 41.4915L88.0221 42.0867L88.4744 43.3435L89.5935 46.9153L85.869 47.2944C85.5269 47.3209 85.1921 47.3734 84.8407 47.4166L83.9933 43.3207L83.984 43.3373Z" fill="#EAD65E"/>
<path d="M85.4879 44.1577C85.4879 44.1577 85.5709 44.2042 85.5762 44.2726C85.2082 44.3065 84.8309 44.357 84.437 44.3981L84.4888 44.3835C85.0202 44.1358 85.3384 44.074 85.4879 44.1577Z" fill="black"/>
<path d="M18.3229 98.0979C14.7194 96.0796 12.4599 91.3892 12.1022 85.2115C11.6576 77.4363 14.4268 66.7273 21.5712 61.5664C31.944 54.0688 61.5877 46.4787 78.3333 42.6375L79.9138 48.5402C70.9734 51.2991 60.851 58.5442 48.9628 70.7341C40.6292 79.2647 32.878 88.8196 25.9173 99.1445L24.3509 101.474L18.3229 98.0979Z" fill="#EAD65E"/>
<path d="M79.0199 45.6181C70.3737 48.2799 60.1982 54.8409 46.7794 68.595C38.0692 77.5255 30.2954 87.1987 23.3905 97.4239L19.8203 95.4243C12.5469 91.3506 13.6965 71.0303 23.3632 64.0535C33.7267 56.5725 66.0467 48.6052 79.0199 45.6181ZM77.6466 39.6569C60.6845 43.5731 30.6004 51.2875 19.7864 59.1052C11.6636 64.9615 8.53823 76.5401 9.05121 85.4006C9.47326 92.7487 12.2422 98.2044 16.8255 100.771L25.3111 105.524L28.47 100.858C35.3376 90.6989 42.9718 81.2748 51.1719 72.8658C62.6929 61.0592 72.3947 54.0584 80.8243 51.4716L77.6631 39.6662L77.6466 39.6569Z" fill="black"/>
<path d="M95.9225 141.559L97.0905 139.007C102.763 126.542 107.046 113.518 109.839 100.314C112.455 87.9699 112.7 76.3925 110.557 66.8589L116.445 65.2265C121.7 81.084 130.377 109.526 129.444 121.983C128.775 130.771 121.091 138.727 114.255 142.403C108.8 145.325 103.62 145.849 100.017 143.831L95.9485 141.552L95.9225 141.559Z" fill="#EAD65E"/>
<path d="M113.528 66.1888C118 79.6662 127.294 109.501 126.37 121.745C125.462 133.649 108.762 145.238 101.472 141.155L99.861 140.253C105.544 127.729 109.919 114.582 112.826 100.94C115.641 87.6166 115.679 75.7483 113.528 66.1888ZM119.319 64.2621L107.56 67.5362C109.612 76.648 109.363 87.765 106.835 99.6784C104.079 112.663 99.8732 125.469 94.2867 137.742L91.9675 142.856L98.477 146.502C103.077 149.079 109.159 148.58 115.645 145.101C123.468 140.909 131.699 132.212 132.458 122.21C133.395 109.864 125.829 83.8767 119.319 64.2621Z" fill="black"/>
<path d="M-39.2641 198.698C-39.0476 198.623 -22.4985 192.796 -6.91894 180.208C-17.053 182.255 -30.6956 182.62 -43.615 175.384C-43.9305 175.208 -44.246 175.031 -44.545 174.863L-52.9522 169.893L-43.3516 168.137C-43.2313 168.117 -31.1051 165.746 -15.8532 155.964L-17.1817 155.219L16.0057 102.079C17.2586 100.076 18.6451 97.951 20.3491 95.415C27.5383 84.76 35.5511 74.8935 44.1538 66.0773C57.0179 52.8851 67.7534 45.2853 77.93 42.1499C79.9527 41.5376 81.9768 41.0787 83.941 40.8044C84.3701 40.7394 84.79 40.6909 85.2005 40.659C86.151 40.5588 87.083 40.4917 87.987 40.4745C92.9438 40.3493 97.9881 41.6256 102.538 44.1739C108.201 47.3454 112.525 52.1669 114.752 57.7335C115.674 60.0605 116.456 62.6365 117.094 65.3932C119.457 75.8574 119.225 88.4239 116.403 101.721C113.503 115.389 109.07 128.875 103.189 141.79C102.095 144.209 101.084 146.326 100.114 148.292L71.7931 205.052L70.1159 204.113C69.9588 211.093 70.0597 223.104 71.9935 233.284L73.2247 239.732L67.0399 237.337C67.0399 237.337 66.5875 237.171 65.7904 236.725C62.5522 234.911 52.9182 228.119 45.8675 208.769C43.813 220.227 43.7601 228.618 43.7078 236.813C43.697 239.949 43.6682 242.921 43.5485 246.017L43.2498 253.289L37.6032 248.687C26.2436 239.445 16.3041 217.735 17.0439 197.796C4.84161 206.69 -7.49596 211.931 -38.7856 205.75L-52.0241 203.135L-39.2734 198.715L-39.2641 198.698Z" fill="#EAD65E"/>
<path d="M100.745 47.3364C105.494 49.9964 109.399 54.125 111.366 59.0658C112.235 61.254 112.966 63.6487 113.528 66.1888C115.695 75.7576 115.658 87.6259 112.826 100.94C109.936 114.591 105.561 127.739 99.861 140.253C98.8831 142.389 97.8886 144.515 96.835 146.63L70.2337 199.968L66.6966 197.987C66.6966 197.987 65.3597 217.941 68.4011 233.933C68.4011 233.933 68.1002 233.808 67.5688 233.511C64.2476 231.65 51.8989 222.967 45.4206 194.143C38.7295 219.06 40.4711 231.881 39.8924 245.846C28.6231 236.676 16.9256 211.211 21.7141 189.613C7.00544 201.074 -2.61149 209.169 -38.0892 202.17C-38.0892 202.17 -11.2387 192.907 7.16186 171.777C7.16186 171.777 -18.856 185.085 -41.8386 172.213C-42.1209 172.054 -42.4198 171.887 -42.7021 171.729C-42.7021 171.729 -27.3337 168.905 -8.93624 155.649L-12.0748 153.891L19.1031 103.989C20.4935 101.779 21.9078 99.6039 23.3812 97.4405C30.2954 87.1987 38.0692 77.5255 46.7701 68.6116C60.1889 54.8575 70.3644 48.2965 79.0106 45.6347C80.8779 45.0662 82.6946 44.6657 84.4277 44.4147C84.805 44.3643 85.1823 44.3138 85.5669 44.2893C86.4231 44.2016 87.2442 44.1379 88.0798 44.126C92.4985 44.0266 96.8998 45.2046 100.752 47.3623M104.317 40.9597C99.2019 38.0951 93.5258 36.6613 87.8869 36.7972C86.9569 36.8217 85.9566 36.8941 84.8267 37.0029C84.3644 37.0494 83.902 37.0959 83.447 37.1683C81.2941 37.4677 79.0814 37.9519 76.8681 38.6319C66.0863 41.952 54.8599 49.8441 41.5487 63.4839C32.7939 72.4549 24.6362 82.502 17.3281 93.3304C15.6148 95.883 14.1932 98.0318 12.9124 100.085L-18.2655 149.988L-21.4256 155.046C-34.2536 162.565 -43.9472 164.487 -44.0509 164.516L-62.9937 168.152L-46.4117 177.963C-46.0796 178.149 -45.7308 178.344 -45.3987 178.53C-36.8965 183.292 -28.1304 184.973 -20.1426 185.084C-31.1232 191.914 -40.3261 195.18 -40.4815 195.224L-65.8979 204.069L-39.5058 209.296C-11.6358 214.805 2.20225 211.364 13.4638 204.538C14.7846 223.603 24.2752 242.531 35.2735 251.483L46.576 260.671L47.1733 246.128C47.3044 242.972 47.3245 239.821 47.3386 236.796C47.3621 232.119 47.3969 227.383 47.8018 222.025C53.9455 233.101 60.5434 237.953 63.9808 239.878C64.7945 240.334 65.3704 240.591 65.6381 240.697L78.0714 245.763L75.5546 232.573C74.091 224.903 73.7202 216.101 73.6953 209.368L76.7612 203.231L103.362 149.893C104.351 147.894 105.381 145.744 106.502 143.274C112.471 130.125 117.001 116.388 119.964 102.45C122.896 88.6473 123.118 75.5521 120.651 64.5717C119.989 61.6264 119.155 58.869 118.156 56.368C115.625 50.0202 110.726 44.5497 104.333 40.969L104.317 40.9597Z" fill="black"/>
<path d="M31.6447 156.497L35.0426 163.439L41.8739 162.226" stroke="black" stroke-width="2.73" stroke-linecap="round" stroke-linejoin="round"/>
<path d="M25.3588 143.182C29.5605 139.536 35.9035 138.922 35.7375 148.994" stroke="black" stroke-width="2.73" stroke-linecap="round" stroke-linejoin="round"/>
<path d="M45.4852 154.454C49.6869 150.808 56.0299 150.194 55.864 160.267" stroke="black" stroke-width="2.73" stroke-linecap="round" stroke-linejoin="round"/>
</g>
<defs>
<clipPath id="clip0_88_160">
<rect width="133" height="275" fill="white"/>
</clipPath>
</defs>
</svg>
