<svg width="43" height="40" viewBox="0 0 43 40" fill="none" xmlns="http://www.w3.org/2000/svg">
<path d="M35.0607 22.72C34.2407 22.72 33.4807 22.21 33.1807 21.41C32.2207 18.78 31.0507 16.28 29.7207 13.97C27.8707 10.76 26.1907 8.72002 24.5807 7.71002C23.6707 7.14002 23.3707 5.95002 23.9107 5.02002C24.2807 4.38002 24.9507 4.02002 25.6507 4.02002C25.9707 4.02002 26.2907 4.10002 26.5807 4.25002C30.8707 6.52002 36.3807 9.71002 38.2907 12.02C39.9407 14.01 40.0007 17.06 39.3307 19.18C38.7907 20.9 37.7707 22.05 36.4707 22.41L35.6007 22.65C35.4207 22.7 35.2407 22.72 35.0607 22.72Z" fill="#EAD65E"/>
<path d="M25.6407 6.01C28.2907 7.41 34.8807 11.03 36.7507 13.29C38.4907 15.4 37.7207 19.99 35.9407 20.48L35.0707 20.72C34.0907 18.05 32.9007 15.45 31.4607 12.96C29.2507 9.13 27.3807 7.09 25.6507 6.01M25.6407 2.01C24.2507 2.01 22.9107 2.73 22.1707 4.01C21.1007 5.88 21.6907 8.26 23.5207 9.4C24.8307 10.22 26.3307 12.09 27.9907 14.96C29.2707 17.17 30.3807 19.57 31.3007 22.09C31.8907 23.7 33.4107 24.72 35.0607 24.72C35.4107 24.72 35.7707 24.67 36.1307 24.57L37.0007 24.33C38.9807 23.78 40.4807 22.16 41.2307 19.77C42.0607 17.13 41.9507 13.31 39.8207 10.73C38.1207 8.67 33.9707 5.89 27.5007 2.46C26.9007 2.15 26.2607 2 25.6307 2L25.6407 2.01Z" fill="black"/>
<path d="M8.67064 22.72C8.49064 22.72 8.31064 22.7 8.13064 22.65L7.26064 22.41C5.96064 22.05 4.94064 20.9 4.40064 19.18C3.73064 17.05 3.79064 14.01 5.44064 12.02C7.35064 9.71002 12.8606 6.52002 17.1506 4.25002C17.4506 4.09002 17.7706 4.02002 18.0806 4.02002C18.7706 4.02002 19.4506 4.38002 19.8206 5.02002C20.3606 5.95002 20.0606 7.14002 19.1506 7.71002C17.5406 8.72002 15.8606 10.76 14.0106 13.97C12.6806 16.28 11.5106 18.79 10.5506 21.42C10.2606 22.22 9.49064 22.73 8.67064 22.73V22.72Z" fill="#EAD65E"/>
<path d="M18.0906 6.01001C16.3506 7.09001 14.4806 9.14001 12.2806 12.96C10.8506 15.45 9.65064 18.04 8.67064 20.72L7.80064 20.48C6.02064 19.99 5.25064 15.39 6.99064 13.29C8.85064 11.03 15.4406 7.42001 18.1006 6.01001M18.0806 2.01001C17.7806 2.01001 17.4906 2.04001 17.1906 2.11001C16.8206 2.19001 16.4706 2.33001 16.1406 2.51001C9.71064 5.92001 5.58064 8.69001 3.89064 10.74C1.76064 13.31 1.65064 17.13 2.48064 19.78C3.23064 22.17 4.73064 23.79 6.71064 24.34L7.58064 24.58C7.94064 24.68 8.30064 24.73 8.65064 24.73C10.2906 24.73 11.8206 23.71 12.4106 22.1C13.3306 19.58 14.4506 17.18 15.7206 14.97C17.3606 12.14 18.8406 10.28 20.1406 9.44001C21.3006 8.74001 22.0806 7.47001 22.0806 6.01001C22.0806 3.88001 20.4206 2.15001 18.3306 2.02001C18.2406 2.02001 18.1606 2.02001 18.0706 2.02001L18.0806 2.01001Z" fill="black"/>
<path d="M16.7207 5.71999L3.56066 28.52C1.31066 32.41 4.12066 37.28 8.62066 37.28H34.9507C39.4407 37.28 42.2507 32.42 40.0107 28.52L26.8307 5.71999C24.5807 1.82999 18.9707 1.82999 16.7207 5.71999Z" fill="#EAD65E" stroke="black" stroke-width="4" stroke-miterlimit="10"/>
<path d="M18.9006 28.08L22.2406 30.39L25.0606 28.08" stroke="black" stroke-width="2.73" stroke-linecap="round" stroke-linejoin="round"/>
<path d="M12.6006 23.6C13.5906 20.85 16.3406 18.94 18.8506 23.6" stroke="black" stroke-width="2.73" stroke-linecap="round" stroke-linejoin="round"/>
<path d="M24.7106 23.6C25.7006 20.85 28.4506 18.94 30.9606 23.6" stroke="black" stroke-width="2.73" stroke-linecap="round" stroke-linejoin="round"/>
</svg>
